<svg xmlns="http://www.w3.org/2000/svg" viewBox="0 0 105.57 23.93"><defs><style>.cls-1{fill:none;}</style></defs><g id="Layer_2" data-name="Layer 2"><g id="Layer_3" data-name="Layer 3"><path class="cls-1" d="M85.54,7.72l-.19-.46a.56.56,0,0,0,0-.12c0,.05,0,.11,0,.16l-.2.45-.23.51-.63,1.3h2.22l-.63-1.3Z"/><polygon points="40.42 12.39 40.42 4.24 37.91 4.24 37.91 7.26 34.26 7.26 34.26 4.24 31.75 4.24 31.75 12.39 34.26 12.39 34.26 9.45 37.91 9.45 37.91 12.39 40.42 12.39"/><path d="M56.17,10.61a3.67,3.67,0,0,0,.54-2V4.23H54.23V8.58a1.68,1.68,0,0,1-.24.9,1.63,1.63,0,0,1-.64.61,2,2,0,0,1-.94.21,1.93,1.93,0,0,1-.9-.21,1.56,1.56,0,0,1-.61-.61,1.77,1.77,0,0,1-.23-.9V4.23H48.14V8.64a3.66,3.66,0,0,0,.53,2A3.73,3.73,0,0,0,50.17,12a5,5,0,0,0,2.25.49A5,5,0,0,0,54.67,12,3.73,3.73,0,0,0,56.17,10.61Z"/><path d="M66.47,8.36c0-.21,0-.4-.06-.56s0-.06,0-.1l4.47,4.69h2.36V4.23H70.81V6.41c0,.2,0,.4,0,.6s0,.4,0,.61,0,.46.07.73,0,.36.06.57L66.43,4.23H64.09v8.16h2.42V9.13C66.5,8.83,66.49,8.58,66.47,8.36Z"/><path d="M84.28,4.23l-3.93,8.16h2.48l.54-1.12h3.88l.54,1.12h2.53L86.41,4.23ZM84.2,9.56l.63-1.3.23-.51.2-.45s0-.11,0-.16a.56.56,0,0,1,0,.12l.19.46.25.54.63,1.3Z"/><polygon points="100.59 7.2 98.33 4.24 95.35 4.24 99.31 9.24 99.31 12.39 101.85 12.39 101.85 9.16 105.57 4.24 102.75 4.24 100.59 7.2"/><path class="cls-1" d="M72.21,15.89a2,2,0,0,0-.7-.4,2.66,2.66,0,0,0-.9-.15,2.56,2.56,0,0,0-.89.15,2.05,2.05,0,0,0-.71.4,1.81,1.81,0,0,0-.61,1.37,1.76,1.76,0,0,0,.16.76,1.89,1.89,0,0,0,.45.61,2.22,2.22,0,0,0,.71.4,2.81,2.81,0,0,0,.89.14,2.93,2.93,0,0,0,.9-.14,2.17,2.17,0,0,0,.7-.4,1.93,1.93,0,0,0,.46-.61,1.76,1.76,0,0,0,.16-.76,1.79,1.79,0,0,0-.16-.76A1.82,1.82,0,0,0,72.21,15.89Z"/><path class="cls-1" d="M58.2,15.92a1.65,1.65,0,0,0-.64-.39,2.34,2.34,0,0,0-.87-.14H55v3.72h1.67a2.34,2.34,0,0,0,.87-.14,1.65,1.65,0,0,0,.64-.39,1.71,1.71,0,0,0,.4-.59,2,2,0,0,0,.13-.74,1.93,1.93,0,0,0-.13-.73A1.86,1.86,0,0,0,58.2,15.92Z"/><path d="M35.42,17.31a4.08,4.08,0,0,0-.62-.21c-.23-.05-.46-.09-.7-.12l-.62-.11a2.59,2.59,0,0,1-.49-.15.83.83,0,0,1-.33-.24.57.57,0,0,1-.11-.36.58.58,0,0,1,.18-.43,1.38,1.38,0,0,1,.48-.28,2.52,2.52,0,0,1,.7-.1,2.06,2.06,0,0,1,.62.09,2,2,0,0,1,.53.25,2.07,2.07,0,0,1,.44.4l.35-.38a1.75,1.75,0,0,0-.48-.46,2.26,2.26,0,0,0-.65-.29,3.32,3.32,0,0,0-.81-.1,3.1,3.1,0,0,0-.76.09,2,2,0,0,0-.62.27,1.49,1.49,0,0,0-.41.42,1.21,1.21,0,0,0-.14.58,1,1,0,0,0,.14.54,1.13,1.13,0,0,0,.4.38,3.1,3.1,0,0,0,.61.23c.23.06.48.11.75.16l.38.05.42.09a2.23,2.23,0,0,1,.39.13.89.89,0,0,1,.28.21.5.5,0,0,1,.11.32.7.7,0,0,1-.2.49,1.26,1.26,0,0,1-.56.31,2.58,2.58,0,0,1-.76.11,2.31,2.31,0,0,1-1.85-.85l-.34.43a2.39,2.39,0,0,0,.6.51,3.12,3.12,0,0,0,.73.3,3.35,3.35,0,0,0,.85.11A3.06,3.06,0,0,0,35,19.51a1.58,1.58,0,0,0,.73-.51,1.2,1.2,0,0,0,.26-.75.93.93,0,0,0-.17-.58A1.13,1.13,0,0,0,35.42,17.31Z"/><polygon points="39.2 15.39 40.94 15.39 40.94 19.63 41.47 19.63 41.47 15.39 43.26 15.39 43.26 14.87 39.2 14.87 39.2 15.39"/><path d="M50.32,17.41a1.77,1.77,0,0,1-.23.9,1.52,1.52,0,0,1-.62.61,1.78,1.78,0,0,1-.91.22,1.69,1.69,0,0,1-.86-.22,1.58,1.58,0,0,1-.62-.61,1.77,1.77,0,0,1-.22-.9V14.87h-.53v2.57a2.3,2.3,0,0,0,.28,1.15,2.09,2.09,0,0,0,.79.8,2.3,2.3,0,0,0,1.17.28,2.41,2.41,0,0,0,1.19-.28,2.07,2.07,0,0,0,.78-.8,2.3,2.3,0,0,0,.29-1.14V14.87h-.51Z"/><path d="M58.61,15.56a2.54,2.54,0,0,0-.81-.51,3.06,3.06,0,0,0-1.08-.18H54.49v4.76h2.23a2.85,2.85,0,0,0,1.08-.19,2.36,2.36,0,0,0,.81-.5,2.17,2.17,0,0,0,.51-.75,2.46,2.46,0,0,0,.18-.94,2.42,2.42,0,0,0-.18-.94A2.38,2.38,0,0,0,58.61,15.56Zm0,2.43a1.71,1.71,0,0,1-.4.59,1.65,1.65,0,0,1-.64.39,2.34,2.34,0,0,1-.87.14H55V15.39h1.67a2.34,2.34,0,0,1,.87.14,1.65,1.65,0,0,1,.64.39,1.86,1.86,0,0,1,.4.6,1.93,1.93,0,0,1,.13.73A2,2,0,0,1,58.6,18Z"/><polygon points="62.34 15.4 63.49 15.4 63.49 19.1 62.34 19.1 62.34 19.63 65.17 19.63 65.17 19.1 64.02 19.1 64.02 15.4 65.17 15.4 65.17 14.87 62.34 14.87 62.34 15.4"/><path d="M72.6,15.52a2.64,2.64,0,0,0-.88-.51,3.23,3.23,0,0,0-1.11-.19A3.31,3.31,0,0,0,69.5,15a2.6,2.6,0,0,0-.87.51,2.45,2.45,0,0,0-.58.78,2.31,2.31,0,0,0,.58,2.7,3,3,0,0,0,.87.51,3.31,3.31,0,0,0,1.11.19,3.23,3.23,0,0,0,1.11-.19A2.64,2.64,0,0,0,72.6,19a2.56,2.56,0,0,0,.58-.78,2.3,2.3,0,0,0,0-1.92A2.45,2.45,0,0,0,72.6,15.52Zm.07,2.5a1.93,1.93,0,0,1-.46.61,2.17,2.17,0,0,1-.7.4,2.93,2.93,0,0,1-.9.14,2.81,2.81,0,0,1-.89-.14,2.22,2.22,0,0,1-.71-.4,1.89,1.89,0,0,1-.45-.61,1.76,1.76,0,0,1-.16-.76A1.81,1.81,0,0,1,69,15.89a2.05,2.05,0,0,1,.71-.4,2.56,2.56,0,0,1,.89-.15,2.66,2.66,0,0,1,.9.15,2,2,0,0,1,.7.4,1.82,1.82,0,0,1,.46.61,1.79,1.79,0,0,1,.16.76A1.76,1.76,0,0,1,72.67,18Z"/><path d="M12,0a12,12,0,1,0,12,12A12,12,0,0,0,12,0Zm.85,4.23h3.93V5.59H15.6v5.17H14V5.59h-1.2ZM11.22,19.58h-4V18.22h1.2V13H10v5.19h1.2Zm-.7-7H6v1.75H7.21v1.37H3.07V14.28H4.28V9.65H3.07V8.28H7.21V9.65H6v1.61H10.8l.51,1.27Zm5.08,7.16h-.93L12,13l-.19-.5-.51-1.27-.19-.5L10,7.93v2.83H8.39V5.59H7.19V4.23H10l2.59,6.53.2.5.5,1.27.2.5.5,1.28V13H15.6Zm5.25-5.41v1.37H16.72V14.28h1.19V12.53H13.83l-.5-1.27h4.58V9.65H16.72V8.28h4.13V9.65H19.66v4.63Z"/></g></g></svg>