<svg xmlns="http://www.w3.org/2000/svg" viewBox="0 0 73.83 72.05"><defs><style>.cls-1{fill:#f7f8f8;}.cls-2{fill:none;}</style></defs><g id="Layer_2" data-name="Layer 2"><g id="Layer_3" data-name="Layer 3"><ellipse class="cls-1" cx="36.91" cy="24.61" rx="24.27" ry="24.06"/><path class="cls-2" d="M53.8,57.57a3.45,3.45,0,0,1-.19-.46s0-.08,0-.12l-.06.16c-.06.15-.13.3-.2.45l-.23.52-.63,1.29h2.22l-.62-1.29Z"/><polygon points="2.52 59.3 6.16 59.3 6.16 62.24 8.68 62.24 8.68 54.09 6.16 54.09 6.16 57.11 2.52 57.11 2.52 54.09 0 54.09 0 62.24 2.52 62.24 2.52 59.3"/><path d="M18.43,61.82a4.85,4.85,0,0,0,2.25.49,4.85,4.85,0,0,0,2.25-.49,3.61,3.61,0,0,0,2-3.33v-4.4H22.48v4.34a1.77,1.77,0,0,1-.23.9,1.7,1.7,0,0,1-.64.61,2.08,2.08,0,0,1-.95.21,1.86,1.86,0,0,1-.89-.21,1.58,1.58,0,0,1-.62-.61,1.77,1.77,0,0,1-.22-.9V54.09H16.39v4.4a3.64,3.64,0,0,0,.54,2A3.6,3.6,0,0,0,18.43,61.82Z"/><path d="M34.77,60c0-.39,0-.74,0-1s0-.55,0-.77,0-.4,0-.55,0-.07,0-.11l4.47,4.69h2.36V54.09H39.06V55.6c0,.24,0,.46,0,.66s0,.4,0,.6,0,.4,0,.62,0,.45.06.72,0,.37.06.57l-4.57-4.68H32.34v8.15h2.43Z"/><path d="M52.53,54.09l-3.92,8.15h2.48l.54-1.12h3.88l.54,1.12h2.53l-3.92-8.15Zm-.08,5.32.63-1.29.23-.52c.07-.15.14-.3.2-.45l.06-.16s0,.08,0,.12a3.45,3.45,0,0,0,.19.46l.25.55.62,1.29Z"/><polygon points="67.56 62.24 70.1 62.24 70.1 59.01 73.83 54.09 71.01 54.09 68.84 57.05 66.58 54.09 63.6 54.09 67.56 59.09 67.56 62.24"/><path class="cls-2" d="M42.42,68.28a1.7,1.7,0,0,0-.63-.4,2.66,2.66,0,0,0-.88-.14H39.25v3.73h1.66a2.66,2.66,0,0,0,.88-.14,1.68,1.68,0,0,0,.63-.39,1.62,1.62,0,0,0,.4-.6A2,2,0,0,0,43,69.6a2,2,0,0,0-.14-.73A1.67,1.67,0,0,0,42.42,68.28Z"/><path class="cls-2" d="M53.94,71.38a2.75,2.75,0,0,0,1.79,0,2.15,2.15,0,0,0,.71-.4,1.79,1.79,0,0,0,.45-.61,1.72,1.72,0,0,0,.17-.75,1.76,1.76,0,0,0-.17-.76,1.7,1.7,0,0,0-.45-.61,2.17,2.17,0,0,0-.71-.41,2.93,2.93,0,0,0-1.79,0,2,2,0,0,0-.7.41,1.73,1.73,0,0,0-.46.61,1.76,1.76,0,0,0-.16.76,1.71,1.71,0,0,0,.16.75,1.82,1.82,0,0,0,.46.61A2,2,0,0,0,53.94,71.38Z"/><path d="M18.93,71.45a2.71,2.71,0,0,1-.77.1,2.31,2.31,0,0,1-1-.2,2.45,2.45,0,0,1-.86-.65l-.34.44a2.71,2.71,0,0,0,.61.51,2.8,2.8,0,0,0,.73.3,3.22,3.22,0,0,0,.84.1,3.07,3.07,0,0,0,1.11-.18,1.6,1.6,0,0,0,.73-.51,1.23,1.23,0,0,0,.26-.76,1,1,0,0,0-.16-.58,1.24,1.24,0,0,0-.45-.35,2.65,2.65,0,0,0-.62-.21c-.23,0-.46-.1-.7-.13l-.62-.11a2.84,2.84,0,0,1-.49-.15.65.65,0,0,1-.32-.23.56.56,0,0,1-.12-.36.58.58,0,0,1,.18-.43,1.22,1.22,0,0,1,.49-.28,2.09,2.09,0,0,1,.69-.1,2.06,2.06,0,0,1,.62.09,2,2,0,0,1,.53.25,1.86,1.86,0,0,1,.44.4l.35-.39a1.91,1.91,0,0,0-.48-.46,2.24,2.24,0,0,0-.65-.28,2.87,2.87,0,0,0-.8-.1,3.13,3.13,0,0,0-.77.09,1.87,1.87,0,0,0-.61.26,1.2,1.2,0,0,0-.41.43,1.05,1.05,0,0,0-.15.57,1.07,1.07,0,0,0,.14.55,1.14,1.14,0,0,0,.41.37,2.35,2.35,0,0,0,.6.24c.24,0,.48.11.75.15l.38.06.42.08a2.24,2.24,0,0,1,.39.14.67.67,0,0,1,.28.21.47.47,0,0,1,.11.31.68.68,0,0,1-.2.5A1.39,1.39,0,0,1,18.93,71.45Z"/><polygon points="25.69 71.98 25.69 67.74 27.49 67.74 27.49 67.23 23.42 67.23 23.42 67.74 25.16 67.74 25.16 71.98 25.69 71.98"/><path d="M31.62,71.74a2.33,2.33,0,0,0,1.17.29A2.38,2.38,0,0,0,34,71.74a2.07,2.07,0,0,0,.79-.79,2.3,2.3,0,0,0,.28-1.15V67.23h-.51v2.54a1.86,1.86,0,0,1-.22.89,1.61,1.61,0,0,1-.62.62,1.83,1.83,0,0,1-.91.22,1.71,1.71,0,0,1-.87-.22,1.58,1.58,0,0,1-.61-.62,1.76,1.76,0,0,1-.23-.89V67.23h-.53v2.56A2.46,2.46,0,0,0,30.83,71,2.07,2.07,0,0,0,31.62,71.74Z"/><path d="M42.83,67.92a2.24,2.24,0,0,0-.81-.51,3,3,0,0,0-1.08-.18H38.72V72h2.22A3,3,0,0,0,42,71.8a2.36,2.36,0,0,0,.81-.5,2.17,2.17,0,0,0,.51-.75,2.51,2.51,0,0,0,.18-1,2.41,2.41,0,0,0-.18-.93A2.17,2.17,0,0,0,42.83,67.92Zm0,2.42a1.62,1.62,0,0,1-.4.6,1.68,1.68,0,0,1-.63.39,2.66,2.66,0,0,1-.88.14H39.25V67.74h1.66a2.66,2.66,0,0,1,.88.14,1.7,1.7,0,0,1,.63.4,1.67,1.67,0,0,1,.4.59,2,2,0,0,1,.14.73A2,2,0,0,1,42.82,70.34Z"/><polygon points="49.39 71.45 48.24 71.45 48.24 67.76 49.39 67.76 49.39 67.23 46.56 67.23 46.56 67.76 47.71 67.76 47.71 71.45 46.56 71.45 46.56 71.98 49.39 71.98 49.39 71.45"/><path d="M53.72,71.86a3.1,3.1,0,0,0,1.12.19,3.21,3.21,0,0,0,1.1-.18,2.85,2.85,0,0,0,.88-.52,2.34,2.34,0,0,0,.58-.78,2.28,2.28,0,0,0,0-1.91,2.34,2.34,0,0,0-.58-.78,2.66,2.66,0,0,0-.88-.52,3.21,3.21,0,0,0-1.1-.18,3.33,3.33,0,0,0-1.12.18,2.72,2.72,0,0,0-.87.52,2.35,2.35,0,0,0-.58,2.7,2.3,2.3,0,0,0,.58.77A2.7,2.7,0,0,0,53.72,71.86Zm-1.1-2.24a1.76,1.76,0,0,1,.16-.76,1.73,1.73,0,0,1,.46-.61,2,2,0,0,1,.7-.41,2.93,2.93,0,0,1,1.79,0,2.17,2.17,0,0,1,.71.41,1.7,1.7,0,0,1,.45.61,1.76,1.76,0,0,1,.17.76,1.72,1.72,0,0,1-.17.75,1.79,1.79,0,0,1-.45.61,2.15,2.15,0,0,1-.71.4,2.75,2.75,0,0,1-1.79,0,2,2,0,0,1-.7-.4,1.82,1.82,0,0,1-.46-.61A1.71,1.71,0,0,1,52.62,69.62Z"/><path d="M36.91,0A24.61,24.61,0,1,0,61.52,24.61,24.6,24.6,0,0,0,36.91,0Zm1.75,8.69h8.08V11.5H44.4V22.13H41.13V11.5H38.66ZM35.39,40.28h-8.3v-2.8h2.47V26.8h3.36V37.48h2.47Zm-1.45-14.5H24.7v3.6h2.43v2.8h-8.5v-2.8H21.1V19.84H18.63V17h8.5v2.8H24.7v3.31h9.82l1,2.63ZM44.4,40.5l-1.92,0L37.06,26.8l-.41-1-1-2.63-.41-1-2.29-5.81v5.81H29.56V11.5H27.09V8.69h5.83l5.32,13.44.41,1,1,2.63.4,1,1,2.62V26.8H44.4ZM55.2,29.38v2.8H46.7v-2.8h2.45v-3.6h-8.4l-1-2.63h9.43V19.84H46.7V17h8.5v2.8H52.75v9.54Z"/></g></g></svg>