<svg xmlns="http://www.w3.org/2000/svg" viewBox="0 0 274.44 70.29"><defs><style>.cls-1{fill:#fff;}</style></defs><g id="Layer_2" data-name="Layer 2"><g id="Layer_1-2" data-name="Layer 1"><path class="cls-1" d="M66.54,4.76a7.26,7.26,0,0,0-3.38-.71A37,37,0,0,0,56.8,5.11q-2.88.1-13.48,3.07-8,2.21-17.93,4.61a2.32,2.32,0,0,0-1.63,1.63,13,13,0,0,1-1,2.31Q17.56,41.44,11.54,64.6c-.85,1-1.72,1.15-2.63.38a8.72,8.72,0,0,1-1.47-1.93l4.44-18.73q2.61-11.2,3.77-19a6.64,6.64,0,0,0,1.06-3.23,12.46,12.46,0,0,1,.68-3.14c.45-2.25.67-3.18.67-2.8a2.39,2.39,0,0,0-.48-1.54l.48-.48-.19-.2a49.38,49.38,0,0,1-6,.39A25.29,25.29,0,0,1,3,12.94l-.48-1.06a1,1,0,0,0-.68-.2A3.32,3.32,0,0,0,.83,10,2.58,2.58,0,0,1,0,8,4.39,4.39,0,0,1,2.42,6.66c1.22,0,2.87,1,4.93,2.9,2.06.06,3.89.09,5.5.09a37.78,37.78,0,0,0,6.28-.38A3.44,3.44,0,0,0,20,6.76,8.48,8.48,0,0,0,19.9,5.7V4.54c0-1.87,1.12-2.87,3.38-3A3.56,3.56,0,0,1,25.06,4c.36,1.22.69,1.93,1,2.12Q26.56,8,29.17,7.34C31.8,6.69,34.32,6,36.7,5.12A79.88,79.88,0,0,0,46.93,3.19q2.22-.59,9.85-2c.51-.07,1.64-.28,3.38-.63A21.87,21.87,0,0,1,64,0c2.7,0,4.38,1.16,5,3.48a1.42,1.42,0,0,1-1,1.44,2,2,0,0,1-.68.1A1.5,1.5,0,0,1,66.54,4.76Z"/><path class="cls-1" d="M47.12,63.33c-.71.33-1.86.94-3.47,1.84-.84.06-2.19-.45-4.06-1.55a13.58,13.58,0,0,0-.77-2.6,9,9,0,0,1-.68-2.9,6.39,6.39,0,0,0-1.06,1.55q-3.57,4.44-4.15,5a7.26,7.26,0,0,1-6,1.93,7.12,7.12,0,0,1-2.61-6q0-6.85,1.35-10.42,3.38-9.27,13.42-16.32h1.54c1.48,0,2.23.87,2.23,2.61A21.19,21.19,0,0,1,42.3,40a13.56,13.56,0,0,1-2.13,3.28c-.19.45-1,.91-2.32,1.35a9.1,9.1,0,0,1,1.55-3.86l.48-1.54a1.26,1.26,0,0,0,.1-.58,2.66,2.66,0,0,0-.1-.68c.32-.25.49-.48.49-.67-.39-.07-1.07.48-2,1.64a7.53,7.53,0,0,0-1,.87Q27.42,51.16,27.23,60.44c.26,1.87.84,2.89,1.74,3.09q3.29-.87,5.7-5,2.7-2.41,4.83-8.69,1.05-2.41,4-12.26a3.3,3.3,0,0,1,2.12-1.45,3.09,3.09,0,0,1,.87,2.12,6.24,6.24,0,0,1-.39,1.84c-.26,1-.42,1.61-.48,1.93q-3.87,10.62-3.86,14.09,0,4.54,1.83,6.18A17.13,17.13,0,0,0,46,61a7.58,7.58,0,0,1,2.12-1,5.41,5.41,0,0,1,.1,1C48.19,62.24,47.83,63,47.12,63.33Z"/><path class="cls-1" d="M69.52,59.38l-.29.29a.86.86,0,0,0-.38,1q-7.72,5.79-12.36,6.18a12,12,0,0,1-5.12-1,6.17,6.17,0,0,1-2.9-3.09,17.43,17.43,0,0,1-1-5.12Q50.5,42.39,62,33.79c.26-.06,1-.19,2.22-.38a2.92,2.92,0,0,1,2.56.57,3,3,0,0,1,1,2.42c-.13.84-.22,1.64-.29,2.41Q65.86,44.42,56.3,51.75a8.79,8.79,0,0,1-3.19,1,1.54,1.54,0,0,0-1.45,1.74,6.45,6.45,0,0,0-1.06,4,10.79,10.79,0,0,0,.77,2.9c1.1,1.54,2.86,2.31,5.31,2.31l.39-.29a12.56,12.56,0,0,0,4.25-1.06q2.7-1.64,8.59-4.63a3.11,3.11,0,0,1,.1.67A1.5,1.5,0,0,1,69.52,59.38Zm-5.6-21.05a6.66,6.66,0,0,0-.67-.58q-5.13,3.18-8.89,10.62A2,2,0,0,0,55.43,48l4.82-4.44A17.61,17.61,0,0,0,63.92,38.33Z"/><path class="cls-1" d="M72,55.66l9.26-11.75a42.73,42.73,0,0,1,11-10.12,4.08,4.08,0,0,1,3.47,0,3.81,3.81,0,0,1,1.25,2,6.85,6.85,0,0,0,.68,2,15.31,15.31,0,0,0-.87,3.86c-.26,2.06-.45,3.38-.58,4q-2.22,9.27-2.51,10.52A86,86,0,0,0,92,66.81a6.32,6.32,0,0,1-3-5.31,20.4,20.4,0,0,1,.29-3c.26-1.55.42-2.54.49-3a63.52,63.52,0,0,1,2.12-8.78,25.64,25.64,0,0,0,1.26-8.79c-.46-.19-1.45.42-3,1.84a68.05,68.05,0,0,0-8.59,9.75L73.77,60.05a10.09,10.09,0,0,0-1.93,2.22A20.78,20.78,0,0,1,70,64.69a3,3,0,0,1-2.23.38,7.28,7.28,0,0,1-.86-3.47,16.5,16.5,0,0,1,1-4.64,20.56,20.56,0,0,0,1.06-4.44Q72.42,42.19,79.37,21a3,3,0,0,1,1-2.51,2.69,2.69,0,0,1,.62-2,2.22,2.22,0,0,1,1.79-.92,2.39,2.39,0,0,1,1.83,1.16,10.88,10.88,0,0,1-1.24,6.09,33.49,33.49,0,0,0-3.07,8c-.25,0-.35.19-.28.58q-2.35,6.27-4.51,12.72Q74.54,47.29,72,55.66Z"/><path class="cls-1" d="M122.72,59.38c-.84.71-1.83,1.64-3,2.8a9,9,0,0,1-4.25,1.44q-2.61,0-3.57-3.37a4.23,4.23,0,0,1-.39-1.26c-.26-1-.52-1.54-.77-1.54-.07,0-2,2-5.7,6.08a16.94,16.94,0,0,1-9.17,4,10.67,10.67,0,0,1-2.7-7.24,26.25,26.25,0,0,1,.58-4.83c.38-2.32.61-3.93.67-4.83A46.25,46.25,0,0,1,99.84,36.5a3.1,3.1,0,0,1,2.32.67,4,4,0,0,1,.28,1.35,4.68,4.68,0,0,1-.77,2.13,13.81,13.81,0,0,0-1.06,2.12q-1.55,4.54-3.67,12.55c-.13,1.61-.19,3-.19,4.15a11.41,11.41,0,0,0,.48,4,10,10,0,0,0,4-1.35c.06-.06,1.13-.9,3.19-2.51a61.09,61.09,0,0,1,4.82-6.66,16.2,16.2,0,0,0,3.58-7.15,65.1,65.1,0,0,1,5-10c1.09-.71,1.83-.51,2.22.58a5.31,5.31,0,0,1,.29,1.64,9,9,0,0,1-1.07,3.67,18.35,18.35,0,0,0-1.35,3.57q-2.7,3.48-3.28,10.14c.06.32.16,1.19.29,2.61.13,1.09.48,1.74,1.06,1.93a7.32,7.32,0,0,0,2.42-1c1.09-.77,1.76-1.22,2-1.35q1.16-1.15,3.38-3.09l1.16.78A7.06,7.06,0,0,1,122.72,59.38Z"/><path class="cls-1" d="M144,45.86c-.45,2.12-.87,4.22-1.25,6.28a34.41,34.41,0,0,0-.78,6.27,12.71,12.71,0,0,0,2.22,7.44,6.14,6.14,0,0,1-1.73.28,3.7,3.7,0,0,1-2.42-.86,15.09,15.09,0,0,1-1.83-7.63,36.38,36.38,0,0,1,.87-7l1.35-6.76-.1-.19q-3.67,2.8-8.3,9.75-4.92,7.34-7.82,10a6.18,6.18,0,0,1-2.41.58,3.57,3.57,0,0,1-1.16-.19c-1.1-.84-1.39-2.25-.87-4.25q1-4.16,3-11A79.35,79.35,0,0,0,125,37.36a2,2,0,0,1,1.64-.86,2.3,2.3,0,0,1,1.79,1.06,2.5,2.5,0,0,1,.62,2l-4.15,17.09a9.12,9.12,0,0,1,1.93-2.7q4.92-6.86,6.37-8.59a35.44,35.44,0,0,1,8-7.15q3.18,0,3.18,3.38a14.69,14.69,0,0,1-.24,2.13A14.44,14.44,0,0,0,144,45.86Z"/><path class="cls-1" d="M178,47.49q-1.81,6.28-4.41,19.51a2.72,2.72,0,0,1,.3,1.26,3.35,3.35,0,0,1-.1.87,2,2,0,0,1-1.74,1.16,3,3,0,0,1-2.12-1.16,202.76,202.76,0,0,1,3.86-20q3.6-15.26,4.38-19.79a3.57,3.57,0,0,1,.47-1.89,4.92,4.92,0,0,0,.56-1.79A1.23,1.23,0,0,0,179,25l3.08-14.29c.91-1.29,1.29-2.29,1.17-3L182.68,7A4.89,4.89,0,0,1,186,5.6a5.31,5.31,0,0,1,1.64.29L188.13,7a3.32,3.32,0,0,1,.43,1.35,1.8,1.8,0,0,1-.48,1.16A24.36,24.36,0,0,0,186,16.12a22.46,22.46,0,0,1-2.22,6.67,2.53,2.53,0,0,1,.19,1,7,7,0,0,1-.77,2.56,7,7,0,0,0-.77,2.27,1.38,1.38,0,0,0,.29.87c4.57-2.64,7-4.09,7.43-4.35A55,55,0,0,0,197.06,20q4.55-2.8,13-8.11a3.39,3.39,0,0,1,1.07-.2c.51,0,1.38.61,2.6,1.84A4.83,4.83,0,0,1,211.54,17a25.37,25.37,0,0,0-7.62,3.67c-2.39,1.67-4.78,3.28-7.2,4.83s-4,2.54-4.87,3A35.36,35.36,0,0,0,187.41,32c-1.81.83-2.9,1.67-3.29,2.51a10.68,10.68,0,0,0-1,4.25c0,2.64,1.32,5.24,4,7.82q2.5,2,7.33,6.08a10.9,10.9,0,0,0,6.57,3,3.3,3.3,0,0,0,1.93,1c.26.13.77.35,1.55.67a6,6,0,0,1-4.74.68,10.42,10.42,0,0,0-3.19-.68,38.48,38.48,0,0,1-17.21-14,3.37,3.37,0,0,0-.53,1.88A4.47,4.47,0,0,1,178,47.49Z"/><path class="cls-1" d="M221.78,60.25c-.58,1-1.55,2.35-2.9,4.15q-3.76,2.31-5.5,2.22c-1.16-.07-2.45-1-3.87-2.9a33.77,33.77,0,0,1-.19-3.47,68.59,68.59,0,0,1,3-20q.49-1.55,2.61-6.37a1.94,1.94,0,0,1,1.55-.68,3,3,0,0,1,1.83.68,1.93,1.93,0,0,1,.87,1.54,1.42,1.42,0,0,1-.29.87,36.19,36.19,0,0,0-3.28,7.34l-2.13,10a28.45,28.45,0,0,0-.29,8,5.5,5.5,0,0,0,1,1.55c.26.06.64-.15,1.16-.63a4.32,4.32,0,0,1,1.06-.82,20.27,20.27,0,0,0,3.19-3,11.66,11.66,0,0,1,3.57-2.9l2.22-2.61C224.19,57.16,223,59.47,221.78,60.25Zm1.54-34.18-.29.19a2.37,2.37,0,0,0-.39,1c-3.08.25-4.73-.49-4.92-2.22,0-1,.35-1.68,1.06-1.94a13.32,13.32,0,0,1,2.32,0,3.86,3.86,0,0,0,1.26-.28A3.91,3.91,0,0,1,224,24.52,1.88,1.88,0,0,1,223.32,26.07Z"/><path class="cls-1" d="M232.59,35.72a8.28,8.28,0,0,1,1.16,4.64,16.84,16.84,0,0,1-1.74,7,20.29,20.29,0,0,1-.63,4,12.72,12.72,0,0,0-.43,4.2q3-3.66,9.27-10.91a51.21,51.21,0,0,1,10.33-9.46c1.86.71,2.8,2.29,2.8,4.73,0,.45-.07,1.45-.2,3a15,15,0,0,0-.09,2.9c-.77,2.58-1.81,6.56-3.09,12,.06.07.16.07.29,0a48.22,48.22,0,0,0,6.51-8.21,46.71,46.71,0,0,1,6-7.72c2.9-2.64,4.6-4.18,5.12-4.63a50.81,50.81,0,0,1,4.34-2.71,2.13,2.13,0,0,1,2.12,1.65,20.76,20.76,0,0,1-1.25,8.2q-2.42,6.77-2.61,7.92-2,10.62-1.83,14.38h.09a3.62,3.62,0,0,1,1.26.39A2.51,2.51,0,0,1,269,68.93c-.07,0-.74.26-2,.78a7.56,7.56,0,0,1-2.32-6c0-.78.07-1.89.19-3.34s.19-2.56.19-3.33a87.72,87.72,0,0,1,2.38-8.79q2.16-6.45,2.75-8.67H270a2.64,2.64,0,0,0-.67.87c-.26.45-.46.68-.58.68a14.25,14.25,0,0,0-3,2.9q-2.61,3.27-4,4.73-2.81,3.57-8,9.94a31.63,31.63,0,0,1-3.38,3.77q-3.09,2.7-4.64,2.41a4.27,4.27,0,0,1,0-1.83,18.25,18.25,0,0,0,.29-2,62.93,62.93,0,0,1,.67-6.28c.2-1,.74-3,1.65-6a9.26,9.26,0,0,0,.48-2.32c0-.52,0-1.19-.1-2s-.09-1.38-.09-1.64a14.16,14.16,0,0,0-.1-1.64A18.52,18.52,0,0,0,243.88,46a33.27,33.27,0,0,1-4.53,5.21,46.56,46.56,0,0,1-6.09,6.76,23,23,0,0,0-5.11,6.27c-.07-.12-.31,0-.73.39a3,3,0,0,1-.72.58h-1.45a2.47,2.47,0,0,1-1.45-.48,63.14,63.14,0,0,1,2.9-12,58.72,58.72,0,0,0,2.9-12,16.18,16.18,0,0,0-1.07-4.63A3.53,3.53,0,0,1,232.59,35.72Z"/></g></g></svg>