<svg xmlns="http://www.w3.org/2000/svg" viewBox="0 0 74.62 74.61"><defs><style>.cls-1{fill:#f7f8f8;}</style></defs><g id="Layer_2" data-name="Layer 2"><g id="Layer_3" data-name="Layer 3"><circle class="cls-1" cx="37.31" cy="37.3" r="36.43"/><polygon points="26.45 45.7 26.45 42.59 26.45 42.59 23.75 42.59 23.75 38.6 28.02 38.6 29.15 38.6 32.88 38.6 34.01 38.6 35.8 38.6 34.65 35.68 34.01 35.68 32.88 35.68 29.15 35.68 28.02 35.68 23.75 35.68 23.75 32.01 26.45 32.01 26.45 32.01 26.45 28.9 26.45 28.9 17.02 28.9 17.02 32.01 19.76 32.01 19.76 42.59 17.02 42.59 17.02 45.7 26.45 45.7 26.45 45.7"/><polygon points="48.17 32.01 50.89 32.01 50.89 35.68 46.74 35.68 45.61 35.68 42.22 35.68 41.99 35.68 40.86 35.68 40.45 35.68 40.42 35.68 41.57 38.6 41.99 38.6 42.22 38.6 45.61 38.6 46.74 38.6 50.89 38.6 50.89 42.59 48.17 42.59 48.17 45.7 57.6 45.7 57.6 42.59 54.88 42.59 54.88 32.01 57.6 32.01 57.6 28.9 48.17 28.9 48.17 32.01"/><polygon points="41.99 34.55 45.61 34.55 45.61 22.75 48.21 22.75 48.21 19.64 39.24 19.64 39.24 22.75 41.99 22.75 41.99 34.55"/><polygon points="41.99 42.64 40.83 39.73 40.38 38.6 39.23 35.68 38.78 34.55 32.88 19.64 26.41 19.64 26.41 22.75 29.15 22.75 29.15 34.55 32.88 34.55 32.88 28.1 35.42 34.55 35.87 35.68 37.02 38.6 37.47 39.73 43.48 54.96 45.61 54.94 45.61 39.73 41.99 39.73 41.99 42.64"/><polygon points="32.88 39.73 29.15 39.73 29.15 51.58 26.41 51.58 26.41 54.69 35.62 54.69 35.62 51.58 32.88 51.58 32.88 39.73"/><path d="M37.31,10A27.31,27.31,0,1,0,64.62,37.3,27.34,27.34,0,0,0,37.31,10Zm0,54.13A26.82,26.82,0,1,1,64.13,37.3,26.82,26.82,0,0,1,37.31,64.12Z"/><path d="M37.31,2.13A35.17,35.17,0,1,0,72.48,37.3,35.21,35.21,0,0,0,37.31,2.13Zm0,69.85A34.68,34.68,0,1,1,72,37.3,34.68,34.68,0,0,1,37.31,72Z"/><path d="M12.16,30.84h.08a.33.33,0,0,0,.32-.24v0a.34.34,0,0,0-.23-.4h-.09a.34.34,0,0,0-.32.24h0A.34.34,0,0,0,12.16,30.84Z"/><path d="M12.5,29.63l.1,0a.32.32,0,0,0,.31-.23v0a.33.33,0,0,0-.21-.42h-.1a.32.32,0,0,0-.31.22v0A.31.31,0,0,0,12.5,29.63Z"/><path d="M11.87,32.06h.07a.32.32,0,0,0,.32-.26v0a.32.32,0,0,0-.25-.39H12a.33.33,0,0,0-.32.26h0A.34.34,0,0,0,11.87,32.06Z"/><path d="M11.49,34.54h0a.32.32,0,0,0,.32-.29v0a.33.33,0,0,0-.29-.36h0a.33.33,0,0,0-.32.29v0A.33.33,0,0,0,11.49,34.54Z"/><path d="M18.27,20a.32.32,0,0,0,.24-.11l0,0a.32.32,0,0,0,0-.46.35.35,0,0,0-.23-.09.34.34,0,0,0-.24.1l0,0a.32.32,0,0,0,0,.46A.31.31,0,0,0,18.27,20Z"/><path d="M17.44,20.92a.33.33,0,0,0,.25-.12l0,0a.33.33,0,0,0,0-.47.31.31,0,0,0-.21-.07.36.36,0,0,0-.25.11l0,0a.33.33,0,0,0,.25.54Z"/><path d="M15.92,22.92a.33.33,0,0,0,.27-.15l0,0a.32.32,0,0,0-.09-.45.3.3,0,0,0-.18-.06.32.32,0,0,0-.27.14v0h0a.33.33,0,0,0,.08.46A.33.33,0,0,0,15.92,22.92Z"/><path d="M11.39,35.79h0a.33.33,0,0,0,.33-.3v0a.33.33,0,0,0-.3-.35h0a.32.32,0,0,0-.32.31v0h0A.33.33,0,0,0,11.39,35.79Z"/><path d="M12.9,28.44a.2.2,0,0,0,.11,0,.34.34,0,0,0,.31-.21v0a.33.33,0,0,0-.19-.43l-.12,0a.32.32,0,0,0-.3.21h0v0A.32.32,0,0,0,12.9,28.44Z"/><path d="M15.06,23.92a.34.34,0,0,0,.17,0,.33.33,0,0,0,.28-.16l0,0a.33.33,0,0,0-.28-.5.32.32,0,0,0-.28.15v0h0A.33.33,0,0,0,15.06,23.92Z"/><path d="M13.35,27.27l.13,0a.31.31,0,0,0,.3-.2l0,0a.32.32,0,0,0-.17-.43.31.31,0,0,0-.13,0,.31.31,0,0,0-.3.2l0,0A.33.33,0,0,0,13.35,27.27Z"/><path d="M14.43,25a.34.34,0,0,0,.16,0,.32.32,0,0,0,.29-.17l0,0a.33.33,0,0,0-.13-.45.29.29,0,0,0-.16,0,.34.34,0,0,0-.29.17h0v0A.34.34,0,0,0,14.43,25Z"/><path d="M13.87,26.13a.32.32,0,0,0,.14,0,.35.35,0,0,0,.3-.18v0a.33.33,0,0,0-.15-.44.23.23,0,0,0-.14,0,.35.35,0,0,0-.3.18h0v0h0A.32.32,0,0,0,13.87,26.13Z"/><path d="M11.65,33.3h.06A.33.33,0,0,0,12,33v0a.32.32,0,0,0-.27-.37h-.06a.33.33,0,0,0-.32.27v0h0v0A.33.33,0,0,0,11.65,33.3Z"/><path d="M14.35,48.71l0,0a.33.33,0,0,0-.29-.19.28.28,0,0,0-.15,0,.33.33,0,0,0-.15.44h0v0a.32.32,0,0,0,.29.18.4.4,0,0,0,.15,0A.33.33,0,0,0,14.35,48.71Z"/><path d="M14.93,49.8l0,0a.34.34,0,0,0-.29-.17.33.33,0,0,0-.16,0,.32.32,0,0,0-.12.44v0h0a.34.34,0,0,0,.29.17.32.32,0,0,0,.16,0A.33.33,0,0,0,14.93,49.8Z"/><path d="M13.82,47.59v0a.34.34,0,0,0-.3-.19l-.13,0a.33.33,0,0,0-.17.43v0h0a.35.35,0,0,0,.3.2.28.28,0,0,0,.13,0A.32.32,0,0,0,13.82,47.59Z"/><path d="M15.54,50.84a.32.32,0,0,0-.28-.15.26.26,0,0,0-.17.05.32.32,0,0,0-.11.45h0a.32.32,0,0,0,.28.15.26.26,0,0,0,.17,0,.33.33,0,0,0,.11-.45Z"/><path d="M13.35,46.44v0a.32.32,0,0,0-.31-.22.23.23,0,0,0-.11,0,.32.32,0,0,0-.19.42h0v0a.33.33,0,0,0,.31.21.22.22,0,0,0,.11,0A.32.32,0,0,0,13.35,46.44Z"/><path d="M17,52.88a.32.32,0,0,0-.46-.06.33.33,0,0,0-.06.46l0,0a.32.32,0,0,0,.26.13.36.36,0,0,0,.2-.06A.34.34,0,0,0,17,52.9Z"/><path d="M16.22,51.88a.32.32,0,0,0-.27-.15.35.35,0,0,0-.19.06.33.33,0,0,0-.08.46h0a.35.35,0,0,0,.27.14.33.33,0,0,0,.19-.06.33.33,0,0,0,.08-.46Z"/><path d="M16.65,21.9a.3.3,0,0,0,.26-.13l0,0a.32.32,0,0,0-.07-.46.35.35,0,0,0-.19-.06.36.36,0,0,0-.27.12h0l0,0a.33.33,0,0,0,.06.46A.31.31,0,0,0,16.65,21.9Z"/><path d="M11.58,40.8a.33.33,0,0,0,.29-.36v0a.32.32,0,0,0-.32-.28h0a.33.33,0,0,0-.29.36h0v0a.32.32,0,0,0,.32.29Z"/><path d="M11.44,39.56a.34.34,0,0,0,.31-.35v0a.32.32,0,0,0-.32-.3h0a.33.33,0,0,0-.3.35h0v0h0a.33.33,0,0,0,.33.31Z"/><path d="M11.35,37.05h0a.32.32,0,0,0,.33-.32v0a.32.32,0,0,0-.32-.33h0a.32.32,0,0,0-.32.32v0A.33.33,0,0,0,11.35,37.05Z"/><path d="M11.36,38.3h0a.31.31,0,0,0,.32-.33v0a.32.32,0,0,0-.32-.32h0A.33.33,0,0,0,11,38h0v0A.32.32,0,0,0,11.36,38.3Z"/><path d="M11.78,42a.32.32,0,0,0,.27-.37v0a.33.33,0,0,0-.32-.27h-.06a.33.33,0,0,0-.27.38v0h0a.33.33,0,0,0,.32.27Z"/><path d="M12.58,44.08v0a.32.32,0,0,0-.31-.24h-.09a.33.33,0,0,0-.23.4v0a.33.33,0,0,0,.32.24h.08A.33.33,0,0,0,12.58,44.08Z"/><path d="M12.94,45.27v0a.34.34,0,0,0-.31-.23l-.11,0a.33.33,0,0,0-.21.41l0,0a.32.32,0,0,0,.31.22.18.18,0,0,0,.1,0A.32.32,0,0,0,12.94,45.27Z"/><path d="M12,43.27a.34.34,0,0,0,.25-.39v0a.33.33,0,0,0-.32-.26h-.07a.32.32,0,0,0-.25.39v0a.33.33,0,0,0,.32.26Z"/><path d="M19.15,19.08a.31.31,0,0,0,.22-.09l0,0a.32.32,0,0,0,0-.46.29.29,0,0,0-.23-.1.35.35,0,0,0-.23.09h0v0a.32.32,0,0,0,0,.46A.31.31,0,0,0,19.15,19.08Z"/><path d="M43.37,12.39h.11a.32.32,0,0,0,.08-.64h-.12a.33.33,0,0,0-.32.25A.34.34,0,0,0,43.37,12.39Z"/><path d="M17.73,53.84a.36.36,0,0,0-.25-.11.31.31,0,0,0-.21.07.32.32,0,0,0,0,.46v0h0a.32.32,0,0,0,.25.12.33.33,0,0,0,.25-.54Z"/><path d="M44.56,12.71h.13A.32.32,0,0,0,45,12.5a.32.32,0,0,0-.22-.41h-.13a.32.32,0,0,0-.31.23A.33.33,0,0,0,44.56,12.71Z"/><path d="M46.9,13.52l0,0,.13,0a.33.33,0,0,0,.12-.63h0l-.13,0a.33.33,0,0,0-.3.21A.32.32,0,0,0,46.9,13.52Z"/><path d="M45.74,13.09h0l.1,0a.32.32,0,0,0,.31-.22.33.33,0,0,0-.2-.42h0l-.11,0a.32.32,0,0,0-.31.22A.33.33,0,0,0,45.74,13.09Z"/><path d="M39.7,11.78h.07a.33.33,0,0,0,.32-.3.31.31,0,0,0-.29-.35h-.07a.32.32,0,0,0-.32.3A.33.33,0,0,0,39.7,11.78Z"/><path d="M40.93,11.92H41a.34.34,0,0,0,.33-.28.33.33,0,0,0-.28-.37H41a.34.34,0,0,0-.33.28A.33.33,0,0,0,40.93,11.92Z"/><path d="M42.15,12.12h.1a.32.32,0,0,0,.32-.27.32.32,0,0,0-.26-.38h-.09a.33.33,0,0,0-.07.65Z"/><path d="M55.18,18.93a.35.35,0,0,0,.23.09.33.33,0,0,0,.24-.1.33.33,0,0,0,0-.46h0a.33.33,0,0,0-.46,0,.32.32,0,0,0,0,.46Z"/><path d="M54.27,18.09a.37.37,0,0,0,.22.08.36.36,0,0,0,.25-.11.34.34,0,0,0,0-.47h0a.3.3,0,0,0-.22-.08.33.33,0,0,0-.21.57Z"/><path d="M53.33,17.29a.31.31,0,0,0,.2.07.34.34,0,0,0,.26-.12.33.33,0,0,0,0-.46h0a.33.33,0,0,0-.21-.07.32.32,0,0,0-.25.12.32.32,0,0,0,0,.46Z"/><path d="M38.46,11.69h0a.33.33,0,0,0,.33-.32.32.32,0,0,0-.31-.34h-.05a.32.32,0,0,0-.33.31A.32.32,0,0,0,38.46,11.69Z"/><path d="M50.24,15.16l0,0a.32.32,0,0,0,.16,0,.34.34,0,0,0,.29-.16.34.34,0,0,0-.12-.45l0,0a.35.35,0,0,0-.17,0,.33.33,0,0,0-.28.16A.33.33,0,0,0,50.24,15.16Z"/><path d="M49.15,14.56l0,0a.42.42,0,0,0,.15,0,.35.35,0,0,0,.3-.18.33.33,0,0,0-.14-.44l0,0a.26.26,0,0,0-.15,0,.35.35,0,0,0-.29.18A.33.33,0,0,0,49.15,14.56Z"/><path d="M51.29,15.81l0,0a.3.3,0,0,0,.18.06.33.33,0,0,0,.27-.15.34.34,0,0,0-.09-.46h0a.41.41,0,0,0-.18,0,.33.33,0,0,0-.18.6Z"/><path d="M52.34,16.54a.35.35,0,0,0,.19.06.35.35,0,0,0,.27-.14.33.33,0,0,0-.07-.45l0,0h0a.36.36,0,0,0-.2-.06.33.33,0,0,0-.19.59Z"/><path d="M48,14l0,0a.35.35,0,0,0,.14,0,.34.34,0,0,0,.3-.19.33.33,0,0,0-.16-.43h0a.31.31,0,0,0-.13,0,.32.32,0,0,0-.3.19A.31.31,0,0,0,48,14Z"/><path d="M23.05,15.93a.41.41,0,0,0,.18,0l0,0a.33.33,0,0,0-.18-.6.29.29,0,0,0-.18.05h0a.33.33,0,0,0-.1.45A.33.33,0,0,0,23.05,15.93Z"/><path d="M24.11,15.27a.34.34,0,0,0,.17,0l0,0a.32.32,0,0,0,.11-.45.31.31,0,0,0-.44-.11l0,0a.33.33,0,0,0,.17.61Z"/><path d="M26.33,14.1a.23.23,0,0,0,.14,0h0a.32.32,0,0,0,.16-.44.32.32,0,0,0-.3-.19.31.31,0,0,0-.13,0h0a.33.33,0,0,0,.14.63Z"/><path d="M25.21,14.65a.4.4,0,0,0,.15,0l0,0a.33.33,0,0,0,.14-.44.33.33,0,0,0-.29-.18.28.28,0,0,0-.15,0h0l0,0a.32.32,0,0,0-.13.44A.32.32,0,0,0,25.21,14.65Z"/><path d="M20.06,18.22a.3.3,0,0,0,.22-.08l0,0a.34.34,0,0,0,0-.47.32.32,0,0,0-.24-.11.31.31,0,0,0-.22.09l0,0a.33.33,0,0,0,0,.46A.29.29,0,0,0,20.06,18.22Z"/><path d="M21,17.41a.33.33,0,0,0,.21-.07l0,0a.32.32,0,0,0,.05-.46.33.33,0,0,0-.25-.13.34.34,0,0,0-.21.08l0,0a.33.33,0,0,0,0,.46A.34.34,0,0,0,21,17.41Z"/><path d="M22,16.65a.3.3,0,0,0,.19-.07l0,0A.33.33,0,0,0,22,16a.35.35,0,0,0-.19.06v0h0a.33.33,0,0,0-.07.46A.35.35,0,0,0,22,16.65Z"/><path d="M37.27,11.67h0a.33.33,0,0,0,0-.66h0a.33.33,0,0,0-.33.33A.34.34,0,0,0,37.27,11.67Z"/><path d="M34.77,11.79h.06a.34.34,0,0,0,.3-.36.33.33,0,0,0-.33-.3h-.07a.31.31,0,0,0-.29.35A.33.33,0,0,0,34.77,11.79Z"/><path d="M36,11.7h0a.33.33,0,0,0,.31-.35.33.33,0,0,0-.33-.31h0a.33.33,0,0,0-.31.35A.33.33,0,0,0,36,11.7Z"/><path d="M33.52,11.94h.08a.33.33,0,0,0,0-.65h-.09a.32.32,0,0,0-.27.37A.32.32,0,0,0,33.52,11.94Z"/><path d="M28.65,13.15l.11,0,0,0a.32.32,0,0,0,.2-.41.33.33,0,0,0-.31-.22.22.22,0,0,0-.11,0h0a.33.33,0,0,0-.2.42A.34.34,0,0,0,28.65,13.15Z"/><path d="M27.48,13.59l.13,0,0,0a.32.32,0,0,0,.18-.42.34.34,0,0,0-.31-.21l-.12,0h0a.33.33,0,0,0-.18.43A.31.31,0,0,0,27.48,13.59Z"/><path d="M32.28,12.15h.1a.33.33,0,0,0-.06-.65h-.1a.34.34,0,0,0-.26.39A.32.32,0,0,0,32.28,12.15Z"/><path d="M31.06,12.43h.11a.33.33,0,0,0-.08-.65H31a.33.33,0,0,0-.24.4A.33.33,0,0,0,31.06,12.43Z"/><path d="M29.85,12.76l.09,0h0a.32.32,0,0,0,.22-.41.32.32,0,0,0-.31-.23h-.13a.34.34,0,0,0-.22.41A.35.35,0,0,0,29.85,12.76Z"/><path d="M62.75,42.51h-.07a.32.32,0,0,0-.32.26v0a.32.32,0,0,0,.25.39h.07a.33.33,0,0,0,.32-.26v0A.34.34,0,0,0,62.75,42.51Z"/><path d="M62.47,43.74h-.09a.33.33,0,0,0-.32.24v0a.33.33,0,0,0,.23.41h.08a.33.33,0,0,0,.32-.25v0h0A.33.33,0,0,0,62.47,43.74Z"/><path d="M62.13,45l-.1,0a.34.34,0,0,0-.32.23v0a.33.33,0,0,0,.22.41.16.16,0,0,0,.1,0,.34.34,0,0,0,.31-.23h0v0A.33.33,0,0,0,62.13,45Z"/><path d="M63,41.28h-.06a.34.34,0,0,0-.32.28v0a.34.34,0,0,0,.27.38h.06a.33.33,0,0,0,.32-.28v0A.32.32,0,0,0,63,41.28Z"/><path d="M18.55,54.77a.31.31,0,0,0-.24-.1.3.3,0,0,0-.22.08.33.33,0,0,0,0,.47h0a.32.32,0,0,0,.46,0,.32.32,0,0,0,0-.46Z"/><path d="M63.26,36.27h0a.34.34,0,0,0-.32.34v0a.33.33,0,0,0,.33.32h0a.32.32,0,0,0,.32-.33v0A.33.33,0,0,0,63.26,36.27Z"/><path d="M63.13,40h0a.33.33,0,0,0-.33.29v0a.33.33,0,0,0,.29.36h0a.32.32,0,0,0,.32-.29h0v0A.34.34,0,0,0,63.13,40Z"/><path d="M63.23,38.78h0a.33.33,0,0,0-.33.31v0a.32.32,0,0,0,.3.35h0a.32.32,0,0,0,.33-.3h0v0A.32.32,0,0,0,63.23,38.78Z"/><path d="M63.27,37.53h0a.32.32,0,0,0-.32.32v0a.33.33,0,0,0,.33.34h0a.32.32,0,0,0,.33-.32v0h0v0A.32.32,0,0,0,63.27,37.53Z"/><path d="M57.19,53.66a.33.33,0,0,0-.25.12l0,0a.32.32,0,0,0,0,.46.33.33,0,0,0,.21.07.31.31,0,0,0,.25-.11l0,0h0a.34.34,0,0,0,0-.46A.37.37,0,0,0,57.19,53.66Z"/><path d="M58.71,51.66a.33.33,0,0,0-.27.15l0,0a.32.32,0,0,0,.09.45.3.3,0,0,0,.18.06.32.32,0,0,0,.27-.14l0,0h0a.34.34,0,0,0-.09-.46A.33.33,0,0,0,58.71,51.66Z"/><path d="M56.36,54.6a.35.35,0,0,0-.24.11l0,0a.33.33,0,0,0,0,.47.31.31,0,0,0,.22.09.32.32,0,0,0,.24-.11l0,0h0a.33.33,0,0,0,0-.46A.35.35,0,0,0,56.36,54.6Z"/><path d="M60.19,49.57a.28.28,0,0,0-.15,0,.32.32,0,0,0-.29.17l0,0a.33.33,0,0,0,.13.45.42.42,0,0,0,.16,0,.32.32,0,0,0,.28-.17l0,0A.33.33,0,0,0,60.19,49.57Z"/><path d="M59.57,50.66a.34.34,0,0,0-.17,0,.33.33,0,0,0-.28.16l0,0a.33.33,0,0,0,.28.5.32.32,0,0,0,.28-.15l0,0A.33.33,0,0,0,59.57,50.66Z"/><path d="M60.76,48.45a.35.35,0,0,0-.14,0,.35.35,0,0,0-.3.18v0a.32.32,0,0,0,.15.44.23.23,0,0,0,.14,0,.31.31,0,0,0,.29-.19l0,0A.33.33,0,0,0,60.76,48.45Z"/><path d="M61.27,47.31a.28.28,0,0,0-.13,0,.33.33,0,0,0-.3.2v0a.33.33,0,0,0,.17.43.28.28,0,0,0,.13,0,.33.33,0,0,0,.3-.2v0h0A.32.32,0,0,0,61.27,47.31Z"/><path d="M58,52.68a.33.33,0,0,0-.26.13l0,0a.32.32,0,0,0,.06.46.37.37,0,0,0,.2.07.35.35,0,0,0,.26-.13h0l0,0h0a.33.33,0,0,0-.06-.46A.31.31,0,0,0,58,52.68Z"/><path d="M55.49,55.5a.3.3,0,0,0-.23.1l0,0a.34.34,0,0,0,0,.47.33.33,0,0,0,.23.09.32.32,0,0,0,.23-.09h0l0,0a.32.32,0,0,0,0-.46A.34.34,0,0,0,55.49,55.5Z"/><path d="M59.06,23.74a.33.33,0,0,0,.28.15.31.31,0,0,0,.18-.05.32.32,0,0,0,.1-.45h0l0,0a.32.32,0,0,0-.28-.15.26.26,0,0,0-.17.05.32.32,0,0,0-.1.45Z"/><path d="M58.38,22.71a.35.35,0,0,0,.27.14.33.33,0,0,0,.19-.06.33.33,0,0,0,.08-.46l0,0a.33.33,0,0,0-.27-.14.35.35,0,0,0-.19.06.34.34,0,0,0-.08.46Z"/><path d="M59.68,24.78l0,0A.33.33,0,0,0,60,25a.29.29,0,0,0,.16,0,.32.32,0,0,0,.13-.44v0h0a.32.32,0,0,0-.29-.17.32.32,0,0,0-.16,0A.34.34,0,0,0,59.68,24.78Z"/><path d="M57.65,21.7a.32.32,0,0,0,.26.13.31.31,0,0,0,.2-.07.32.32,0,0,0,.06-.46h0a.32.32,0,0,0-.46-.06.33.33,0,0,0-.06.46Z"/><path d="M56,19.32a.33.33,0,0,0,0,.47l0,0a.32.32,0,0,0,.24.11.31.31,0,0,0,.22-.09.32.32,0,0,0,0-.46v0h0a.3.3,0,0,0-.23-.1A.32.32,0,0,0,56,19.32Z"/><path d="M60.26,25.87v0a.33.33,0,0,0,.3.18.32.32,0,0,0,.14,0,.32.32,0,0,0,.15-.44h0a.33.33,0,0,0-.3-.18.32.32,0,0,0-.14,0A.32.32,0,0,0,60.26,25.87Z"/><path d="M56.87,20.74a.33.33,0,0,0,.25.12.37.37,0,0,0,.22-.08.33.33,0,0,0,0-.46v0h0a.32.32,0,0,0-.25-.12.34.34,0,0,0-.21.08.32.32,0,0,0,0,.46Z"/><path d="M63.17,35a.33.33,0,0,0-.3.35v0a.33.33,0,0,0,.33.3h0a.33.33,0,0,0,.31-.35h0v0a.32.32,0,0,0-.32-.3Z"/><path d="M60.78,27l0,0a.32.32,0,0,0,.3.19.31.31,0,0,0,.13,0,.32.32,0,0,0,.17-.43l0,0a.33.33,0,0,0-.3-.2l-.13,0A.33.33,0,0,0,60.78,27Z"/><path d="M62.58,31.3a.33.33,0,0,0-.25.4v0a.34.34,0,0,0,.32.26h.08a.33.33,0,0,0,.24-.39h0v0h0a.33.33,0,0,0-.32-.25Z"/><path d="M63,33.77a.33.33,0,0,0-.28.37v0a.33.33,0,0,0,.33.29h0a.32.32,0,0,0,.28-.37h0v0h0a.33.33,0,0,0-.33-.29Z"/><path d="M62.83,32.53a.33.33,0,0,0-.26.38v0a.33.33,0,0,0,.33.27H63a.32.32,0,0,0,.27-.37h0v0a.31.31,0,0,0-.32-.27Z"/><path d="M61.26,28.14v0a.32.32,0,0,0,.3.21.25.25,0,0,0,.12,0,.33.33,0,0,0,.19-.42v0h0a.34.34,0,0,0-.31-.21.27.27,0,0,0-.12,0A.32.32,0,0,0,61.26,28.14Z"/><path d="M61.67,29.31v0a.33.33,0,0,0,.31.23l.1,0a.33.33,0,0,0,.22-.41l0,0a.31.31,0,0,0-.31-.22h-.1A.33.33,0,0,0,61.67,29.31Z"/><path d="M62,30.49v0a.33.33,0,0,0,.31.24h.09a.33.33,0,0,0,.23-.4v0a.32.32,0,0,0-.32-.24h-.08A.32.32,0,0,0,62,30.49Z"/><path d="M61.73,46.14a.25.25,0,0,0-.12,0,.32.32,0,0,0-.3.21l0,0a.33.33,0,0,0,.19.42.25.25,0,0,0,.12,0,.34.34,0,0,0,.31-.21v0h0A.33.33,0,0,0,61.73,46.14Z"/><path d="M28.85,61.51l0,0h-.11a.32.32,0,0,0-.11.63h0a.18.18,0,0,0,.1,0,.31.31,0,0,0,.31-.22A.32.32,0,0,0,28.85,61.51Z"/><path d="M30,61.89h0l-.1,0a.32.32,0,0,0-.31.24.32.32,0,0,0,.22.4h0l.09,0a.32.32,0,0,0,.31-.24A.32.32,0,0,0,30,61.89Z"/><path d="M31.23,62.21h-.11a.33.33,0,0,0-.08.65h.11a.32.32,0,0,0,.08-.64Z"/><path d="M27.69,61.07h0a.27.27,0,0,0-.12,0,.34.34,0,0,0-.31.21.32.32,0,0,0,.18.42l0,0,.12,0a.33.33,0,0,0,.12-.63Z"/><path d="M32.44,62.47h-.1a.33.33,0,0,0-.32.26.34.34,0,0,0,.26.39h.1a.33.33,0,0,0,.32-.26A.34.34,0,0,0,32.44,62.47Z"/><path d="M34.89,62.82h-.06a.33.33,0,0,0,0,.65h.07a.33.33,0,0,0,.33-.29A.34.34,0,0,0,34.89,62.82Z"/><path d="M33.66,62.68h-.08a.33.33,0,0,0,0,.65h.09a.32.32,0,0,0,.32-.28A.33.33,0,0,0,33.66,62.68Z"/><path d="M26.56,60.58l0,0a.31.31,0,0,0-.13,0,.32.32,0,0,0-.3.19.33.33,0,0,0,.16.44h0a.32.32,0,0,0,.14,0,.34.34,0,0,0,.3-.19A.33.33,0,0,0,26.56,60.58Z"/><path d="M22.26,58.05a.36.36,0,0,0-.2-.06.33.33,0,0,0-.19.59h0a.37.37,0,0,0,.19.07.35.35,0,0,0,.27-.14.33.33,0,0,0-.07-.46Z"/><path d="M25.44,60l0,0a.42.42,0,0,0-.15,0,.33.33,0,0,0-.29.18.33.33,0,0,0,.14.44h0a.42.42,0,0,0,.15,0,.33.33,0,0,0,.29-.18A.32.32,0,0,0,25.44,60Z"/><path d="M21.27,57.3a.31.31,0,0,0-.2-.07.34.34,0,0,0-.26.12.33.33,0,0,0,.05.46h0l0,0a.31.31,0,0,0,.2.07.32.32,0,0,0,.26-.12.33.33,0,0,0-.05-.46Z"/><path d="M19.42,55.66a.32.32,0,0,0-.23-.1.37.37,0,0,0-.24.1.34.34,0,0,0,0,.47l0,0a.35.35,0,0,0,.23.09.33.33,0,0,0,.24-.1.33.33,0,0,0,0-.46Z"/><path d="M20.33,56.5a.32.32,0,0,0-.22-.08.33.33,0,0,0-.22.57h0a.3.3,0,0,0,.21.09.34.34,0,0,0,.25-.11.33.33,0,0,0,0-.47Z"/><path d="M36.13,62.91h-.05a.33.33,0,0,0-.33.32.32.32,0,0,0,.31.34h0a.33.33,0,0,0,.33-.31A.32.32,0,0,0,36.13,62.91Z"/><path d="M24.36,59.43l0,0a.34.34,0,0,0-.17,0A.33.33,0,0,0,24,60h0a.33.33,0,0,0,.16,0,.34.34,0,0,0,.29-.16A.33.33,0,0,0,24.36,59.43Z"/><path d="M23.31,58.77l0,0a.41.41,0,0,0-.18,0,.33.33,0,0,0-.28.15.33.33,0,0,0,.1.45h0l0,0a.3.3,0,0,0,.18.06.34.34,0,0,0,.27-.15A.34.34,0,0,0,23.31,58.77Z"/><path d="M54.57,56.36a.37.37,0,0,0-.22.08l0,0a.32.32,0,0,0,0,.46.36.36,0,0,0,.25.11.34.34,0,0,0,.21-.08l0,0a.32.32,0,0,0,0-.46A.36.36,0,0,0,54.57,56.36Z"/><path d="M51.59,58.65a.32.32,0,0,0-.18.06l0,0a.32.32,0,0,0-.09.45.31.31,0,0,0,.27.15.41.41,0,0,0,.18,0h0a.34.34,0,0,0,.09-.46A.33.33,0,0,0,51.59,58.65Z"/><path d="M49.43,59.93a.42.42,0,0,0-.15,0l0,0a.33.33,0,0,0-.14.44.33.33,0,0,0,.29.18.42.42,0,0,0,.15,0h0l0,0a.32.32,0,0,0,.13-.44A.33.33,0,0,0,49.43,59.93Z"/><path d="M50.53,59.32a.34.34,0,0,0-.17,0h0a.33.33,0,0,0-.12.45.34.34,0,0,0,.45.12h0a.33.33,0,0,0,.12-.45A.33.33,0,0,0,50.53,59.32Z"/><path d="M47.16,61,47,61l0,0a.32.32,0,0,0-.18.42.34.34,0,0,0,.31.21l.12,0h0a.33.33,0,0,0-.12-.63Z"/><path d="M48.31,60.49a.23.23,0,0,0-.14,0h0A.32.32,0,0,0,48,61a.32.32,0,0,0,.3.19.22.22,0,0,0,.13,0h0a.33.33,0,0,0-.14-.63Z"/><path d="M52.62,57.94a.33.33,0,0,0-.19.06l0,0a.32.32,0,0,0-.07.46.31.31,0,0,0,.26.14.37.37,0,0,0,.2-.07h0a.32.32,0,0,0-.19-.59Z"/><path d="M53.62,57.17a.32.32,0,0,0-.21.08l0,0a.33.33,0,0,0-.05.46.34.34,0,0,0,.26.12.31.31,0,0,0,.2-.07l0,0a.34.34,0,0,0,0-.47A.32.32,0,0,0,53.62,57.17Z"/><path d="M37.37,62.93h0a.32.32,0,0,0-.32.33.32.32,0,0,0,.32.33h0a.33.33,0,0,0,0-.66Z"/><path d="M38.62,62.9h0a.33.33,0,0,0,0,.66h0a.33.33,0,0,0,.31-.35A.33.33,0,0,0,38.62,62.9Z"/><path d="M41.12,62.65H41a.33.33,0,0,0,.05.66h.08a.33.33,0,0,0-.05-.66Z"/><path d="M46,61.45a.2.2,0,0,0-.11,0h0a.33.33,0,0,0-.2.42.34.34,0,0,0,.31.21h.15a.32.32,0,0,0,.2-.41A.33.33,0,0,0,46,61.45Z"/><path d="M39.88,62.81h-.07a.34.34,0,0,0-.3.36.33.33,0,0,0,.33.3h.07a.33.33,0,0,0,.29-.36A.32.32,0,0,0,39.88,62.81Z"/><path d="M44.79,61.84h-.12a.33.33,0,0,0,.09.64h.13a.33.33,0,0,0-.1-.64Z"/><path d="M43.58,62.17h-.11a.32.32,0,0,0-.24.39.33.33,0,0,0,.32.25h.11a.33.33,0,0,0-.08-.65Z"/><path d="M42.36,62.44h-.1a.34.34,0,0,0-.26.39.32.32,0,0,0,.32.26h.1a.32.32,0,0,0,.26-.38A.33.33,0,0,0,42.36,62.44Z"/><path d="M6.22,35.37h0a.17.17,0,0,0,.16-.15v-.09c.06-.9.16-1.79.3-2.68a.17.17,0,0,0-.33-.05c-.14.89-.24,1.8-.3,2.7v.09A.17.17,0,0,0,6.22,35.37Z"/><path d="M6.32,37.3a.18.18,0,0,0-.17-.18.15.15,0,0,0-.16.15v0A31,31,0,0,0,8.68,50a.15.15,0,0,0,.15.09h.06A.17.17,0,0,0,9,49.87,30.6,30.6,0,0,1,6.32,37.3Z"/><path d="M6.87,30.66h0a.17.17,0,0,0,.16-.13v-.08c.1-.43.21-.87.33-1.31a.16.16,0,0,0-.12-.2.18.18,0,0,0-.2.11c-.12.45-.23.89-.33,1.33v.08A.15.15,0,0,0,6.87,30.66Z"/><path d="M68.23,35.22a.16.16,0,0,0,.16.15h0a.16.16,0,0,0,.15-.18V35.1c-.06-.9-.17-1.81-.31-2.7a.15.15,0,0,0-.18-.13.15.15,0,0,0-.14.18c.14.89.24,1.78.3,2.68Z"/><path d="M65.79,50.1a.16.16,0,0,0,.15-.09A31.15,31.15,0,0,0,68.63,37.3v0a.16.16,0,0,0-.17-.15.18.18,0,0,0-.16.18,30.76,30.76,0,0,1-2.66,12.57.16.16,0,0,0,.08.22Z"/><path d="M67.55,30.54a.17.17,0,0,0,.16.13h0a.15.15,0,0,0,.12-.19l0-.08c-.09-.44-.21-.88-.33-1.33a.17.17,0,0,0-.2-.11.16.16,0,0,0-.11.2c.12.44.23.88.32,1.31Z"/><polygon points="16.95 17.95 15.52 16.46 17.47 14.6 18.9 16.09 20.04 15 16.18 10.96 15.04 12.05 16.51 13.59 14.56 15.46 13.09 13.92 11.95 15.01 15.81 19.05 16.95 17.95"/><path d="M24,11.08a2.42,2.42,0,0,0,1.29.48,3.24,3.24,0,0,0,1.53-.25,3.32,3.32,0,0,0,1.29-.88,2.48,2.48,0,0,0,.42-2.63L27.45,5,26,5.58l1.11,2.76a1.21,1.21,0,0,1,.09.69,1.23,1.23,0,0,1-.28.6,1.53,1.53,0,0,1-1.26.51,1.23,1.23,0,0,1-.6-.25,1.32,1.32,0,0,1-.41-.56L23.55,6.57l-1.48.59L23.2,10A2.58,2.58,0,0,0,24,11.08Z"/><path d="M35.88,7.56c0-.24,0-.46,0-.65s0-.36,0-.51,0-.28,0-.4,0-.13,0-.19L39,9.27l1.49,0,.09-5.59-1.52,0,0,1.17v.91c0,.14,0,.29,0,.45s0,.33,0,.51,0,.25,0,.38L35.9,3.64l-1.48,0L34.33,9.2l1.52,0Z"/><path d="M46.71,9.91l2.53,1,.07,1,1.48.59-.41-6.18L49.1,5.78,44.55,10l1.46.58Zm2-1.85L49,7.82l.11-.12a.66.66,0,0,1,0,.14c0,.11,0,.22,0,.34s0,.25,0,.4l.08,1.1-1.54-.61.81-.75Z"/><polygon points="60.53 12.91 57.96 13.5 58.13 10.83 56.69 9.59 56.5 13.96 55.09 15.59 56.3 16.64 57.75 14.96 61.88 14.08 60.53 12.91"/><path d="M19.09,59.19a4,4,0,0,0-.59-.67,4.1,4.1,0,0,0-.69-.48,2.21,2.21,0,0,0-.7-.23,1.41,1.41,0,0,0-.65,0,1.17,1.17,0,0,0-.54.36,1.1,1.1,0,0,0-.22,1.16A2.88,2.88,0,0,0,16,60c.15.22.32.44.5.68a3,3,0,0,1,.27.32c.1.12.2.24.29.37a3.24,3.24,0,0,1,.22.4.9.9,0,0,1,.08.38.55.55,0,0,1-.15.34.77.77,0,0,1-.52.26,1.48,1.48,0,0,1-.68-.15,3,3,0,0,1-.71-.47,2.86,2.86,0,0,1-.67-.89,2.82,2.82,0,0,1-.23-1.16l-.6.11a3,3,0,0,0,.13.85,3.38,3.38,0,0,0,.38.79,4,4,0,0,0,.62.69A3.25,3.25,0,0,0,16,63.2a1.75,1.75,0,0,0,1,.11,1.33,1.33,0,0,0,.76-.43,1,1,0,0,0,.29-.6,1.33,1.33,0,0,0-.1-.61,3.38,3.38,0,0,0-.36-.63c-.15-.21-.31-.41-.48-.61s-.3-.37-.43-.54a4.57,4.57,0,0,1-.3-.48.88.88,0,0,1-.09-.43.57.57,0,0,1,.17-.39.65.65,0,0,1,.46-.22,1.42,1.42,0,0,1,.6.13,2.56,2.56,0,0,1,1.09,1,2.32,2.32,0,0,1,.25.59,2,2,0,0,1,.07.65l.57-.06a1.81,1.81,0,0,0-.06-.73A2.36,2.36,0,0,0,19.09,59.19Z"/><polygon points="22.61 62.38 24.33 63.22 22.29 67.41 22.81 67.67 24.86 63.48 26.63 64.34 26.88 63.83 22.86 61.88 22.61 62.38"/><path d="M34.11,68.4a2.05,2.05,0,0,1-.4.94,1.8,1.8,0,0,1-.78.55,2,2,0,0,1-1,.08,2,2,0,0,1-.9-.39,1.82,1.82,0,0,1-.56-.78,2,2,0,0,1-.08-1L30.81,65l-.57-.09-.46,2.78a2.56,2.56,0,0,0,.1,1.3,2.17,2.17,0,0,0,.71,1,2.56,2.56,0,0,0,1.22.53,2.59,2.59,0,0,0,1.34-.11,2.32,2.32,0,0,0,1-.72,2.62,2.62,0,0,0,.51-1.19l.45-2.79-.55-.09Z"/><path d="M44.53,66.55a2.67,2.67,0,0,0-.68-.74,2.73,2.73,0,0,0-1-.41,3.19,3.19,0,0,0-1.2,0l-2.42.37.79,5.17,2.42-.37a3.54,3.54,0,0,0,1.15-.38,2.76,2.76,0,0,0,.79-.68,2.32,2.32,0,0,0,.43-.91,2.9,2.9,0,0,0-.31-2Zm-.29,1.9a1.89,1.89,0,0,1-.33.72,1.94,1.94,0,0,1-.63.53,2.75,2.75,0,0,1-.93.29l-1.81.28-.62-4L41.73,66a2.68,2.68,0,0,1,1,0,1.88,1.88,0,0,1,1.28.91,2,2,0,0,1,.27.77A2,2,0,0,1,44.24,68.45Z"/><polygon points="51.59 67.12 49.87 63.45 51.01 62.91 50.76 62.38 47.95 63.7 48.2 64.23 49.34 63.69 51.06 67.37 49.92 67.91 50.17 68.43 52.98 67.11 52.73 66.59 51.59 67.12"/><path d="M60.23,58.45a2.34,2.34,0,0,0-.87-.64,2.65,2.65,0,0,0-1-.21,2.84,2.84,0,0,0-1.1.22,3.37,3.37,0,0,0-1,.66,3.51,3.51,0,0,0-.78,1,2.86,2.86,0,0,0-.34,1.06,2.51,2.51,0,0,0,.1,1.06,2.42,2.42,0,0,0,.54.94,2.48,2.48,0,0,0,1.9.85,3,3,0,0,0,1.09-.22,3.69,3.69,0,0,0,1.05-.66,3.83,3.83,0,0,0,.78-1,3.26,3.26,0,0,0,.34-1.07,2.54,2.54,0,0,0-.1-1.06A2.42,2.42,0,0,0,60.23,58.45Zm0,2a2.3,2.3,0,0,1-.28.85,3.23,3.23,0,0,1-.63.77,3,3,0,0,1-.84.54,2.26,2.26,0,0,1-.87.18,2.07,2.07,0,0,1-.82-.16,2,2,0,0,1-.68-.5,2.09,2.09,0,0,1-.43-.75,1.93,1.93,0,0,1-.07-.83,2.36,2.36,0,0,1,.28-.85,3,3,0,0,1,.63-.77,3,3,0,0,1,.83-.54,2.35,2.35,0,0,1,.88-.18,2.07,2.07,0,0,1,.82.16,2,2,0,0,1,.69.51,1.89,1.89,0,0,1,.42.74A2.1,2.1,0,0,1,60.27,60.42Z"/><path d="M74.29,37.59v0a.34.34,0,0,1,.33-.33c0-.2,0-.41,0-.62a.32.32,0,0,1-.32-.32v0a.31.31,0,0,1,.3-.33c0-.21,0-.42,0-.63h0a.33.33,0,0,1-.33-.3v0a.33.33,0,0,1,.29-.34c0-.21,0-.42-.05-.62h0a.33.33,0,0,1-.33-.3v0a.33.33,0,0,1,.28-.36c0-.2-.05-.41-.08-.61h0a.33.33,0,0,1-.33-.29v0a.32.32,0,0,1,.27-.37l-.09-.61H74.1a.33.33,0,0,1-.32-.27v0a.34.34,0,0,1,.25-.37c0-.2-.07-.41-.11-.61h0a.32.32,0,0,1-.32-.26v0a.32.32,0,0,1,.24-.38l-.15-.61h0a.34.34,0,0,1-.32-.26v0a.33.33,0,0,1,.23-.39c0-.2-.11-.4-.16-.6h-.07a.34.34,0,0,1-.32-.24v0a.33.33,0,0,1,.21-.39c-.06-.2-.11-.4-.17-.6h-.09a.33.33,0,0,1-.31-.23v0a.33.33,0,0,1,.19-.4c-.06-.2-.13-.4-.2-.59h-.08a.31.31,0,0,1-.31-.22l0,0a.34.34,0,0,1,.19-.41c-.07-.2-.16-.39-.23-.58l-.1,0a.32.32,0,0,1-.3-.21l0,0a.35.35,0,0,1,.17-.42l-.24-.58-.11,0a.33.33,0,0,1-.3-.2l0,0a.33.33,0,0,1,.15-.42l-.26-.57a.27.27,0,0,1-.12,0,.34.34,0,0,1-.3-.19v0a.31.31,0,0,1,.13-.42c-.09-.19-.19-.38-.29-.56a.53.53,0,0,1-.12,0,.33.33,0,0,1-.29-.18l0,0a.33.33,0,0,1,.12-.43l-.31-.55a.28.28,0,0,1-.13,0,.35.35,0,0,1-.29-.17v0a.32.32,0,0,1,.1-.43L69.2,18a.28.28,0,0,1-.15,0,.32.32,0,0,1-.28-.15l0,0a.33.33,0,0,1,.08-.43c-.11-.18-.22-.36-.34-.53a.42.42,0,0,1-.15,0,.32.32,0,0,1-.27-.14l0,0a.33.33,0,0,1,.07-.44c-.12-.17-.25-.34-.37-.52a.28.28,0,0,1-.42-.08l0,0a.32.32,0,0,1,0-.44c-.12-.17-.25-.33-.38-.5a.35.35,0,0,1-.17.06.33.33,0,0,1-.26-.13l0,0a.31.31,0,0,1,0-.43c-.13-.17-.25-.34-.39-.5a.31.31,0,0,1-.18.07.34.34,0,0,1-.26-.12l0,0a.33.33,0,0,1,0-.44c-.13-.16-.27-.31-.41-.47a.33.33,0,0,1-.19.06.31.31,0,0,1-.24-.1l0,0a.33.33,0,0,1,0-.44c-.14-.16-.29-.31-.43-.46a.31.31,0,0,1-.2.07.33.33,0,0,1-.24-.1l0,0a.32.32,0,0,1,0-.44l-.44-.45a.34.34,0,0,1-.21.08.32.32,0,0,1-.23-.09l0,0a.32.32,0,0,1,0-.44l-.46-.43a.36.36,0,0,1-.22.09.31.31,0,0,1-.22-.09l0,0a.33.33,0,0,1,0-.44L61.6,9a.31.31,0,0,1-.22.09A.36.36,0,0,1,61.16,9l0,0a.32.32,0,0,1,0-.44l-.5-.39a.3.3,0,0,1-.23.11.37.37,0,0,1-.2-.07l0,0a.32.32,0,0,1-.07-.43l-.5-.38a.32.32,0,0,1-.24.11.36.36,0,0,1-.2-.06l0,0A.33.33,0,0,1,59,7l-.51-.36a.37.37,0,0,1-.25.12.33.33,0,0,1-.19-.06l0,0a.33.33,0,0,1-.1-.43l-.53-.34a.31.31,0,0,1-.25.13A.31.31,0,0,1,57,6l0,0a.33.33,0,0,1-.11-.43l-.54-.32a.31.31,0,0,1-.26.14.35.35,0,0,1-.17,0l0,0a.33.33,0,0,1-.13-.42l-.54-.31a.33.33,0,0,1-.28.16.42.42,0,0,1-.15,0l0,0a.32.32,0,0,1-.14-.42L54,4a.32.32,0,0,1-.27.16l-.15,0,0,0a.33.33,0,0,1-.15-.42l-.58-.26a.31.31,0,0,1-.41.14h0a.32.32,0,0,1-.17-.41l-.58-.25a.33.33,0,0,1-.29.19.31.31,0,0,1-.13,0h0A.31.31,0,0,1,51,2.6l-.59-.23a.33.33,0,0,1-.3.2l-.11,0h0a.33.33,0,0,1-.2-.4l-.6-.21a.31.31,0,0,1-.29.21.16.16,0,0,1-.1,0h0a.31.31,0,0,1-.21-.39l-.6-.18a.33.33,0,0,1-.31.22l-.09,0h0a.32.32,0,0,1-.23-.38l-.6-.17a.33.33,0,0,1-.31.24h-.12A.34.34,0,0,1,46,1l-.6-.14a.32.32,0,0,1-.32.24H45a.33.33,0,0,1-.25-.38L44.1.62a.32.32,0,0,1-.31.26h-.1A.33.33,0,0,1,43.43.5L42.81.4a.31.31,0,0,1-.32.27h-.08a.34.34,0,0,1-.28-.36L41.51.24a.32.32,0,0,1-.32.28h-.07a.33.33,0,0,1-.29-.35l-.62,0a.32.32,0,0,1-.32.28h-.06a.33.33,0,0,1-.31-.34L38.9,0a.33.33,0,0,1-.32.31h0A.33.33,0,0,1,38.22,0h-.59a.32.32,0,0,1-.32.32h0A.32.32,0,0,1,37,0l-.63,0A.33.33,0,0,1,36,.34h0A.32.32,0,0,1,35.64,0L35,.07a.35.35,0,0,1-.31.34h-.06a.32.32,0,0,1-.32-.29l-.62.05a.34.34,0,0,1-.29.35h-.07A.32.32,0,0,1,33,.24l-.62.08a.34.34,0,0,1-.28.36h-.08a.31.31,0,0,1-.32-.27l-.62.11a.32.32,0,0,1-.26.36h-.1a.31.31,0,0,1-.31-.25c-.21,0-.41.06-.62.11a.32.32,0,0,1-.25.38h-.1A.32.32,0,0,1,29.16.9L28.55,1a.33.33,0,0,1-.24.38h-.12a.33.33,0,0,1-.31-.24l-.6.17a.33.33,0,0,1-.23.39h-.12a.33.33,0,0,1-.31-.22l-.6.18a.32.32,0,0,1-.21.4h-.13a.33.33,0,0,1-.3-.2l-.6.2a.32.32,0,0,1-.19.4h0a.2.2,0,0,1-.11,0,.33.33,0,0,1-.3-.19l-.58.23a.32.32,0,0,1-.19.4h0a.27.27,0,0,1-.12,0,.33.33,0,0,1-.29-.19l-.58.25a.32.32,0,0,1-.17.41l0,0a.34.34,0,0,1-.14,0,.32.32,0,0,1-.28-.17l-.57.26a.32.32,0,0,1-.15.42l0,0a.32.32,0,0,1-.14,0A.34.34,0,0,1,20.55,4L20,4.27a.33.33,0,0,1-.14.42h0a.29.29,0,0,1-.16,0,.34.34,0,0,1-.27-.15l-.54.31a.33.33,0,0,1-.13.42l0,0a.33.33,0,0,1-.17,0,.31.31,0,0,1-.26-.14l-.54.33a.32.32,0,0,1-.11.42l0,0a.31.31,0,0,1-.18,0,.31.31,0,0,1-.25-.13l-.53.34a.34.34,0,0,1-.1.44l0,0a.37.37,0,0,1-.18,0,.3.3,0,0,1-.25-.12L15.54,7a.32.32,0,0,1-.08.43l0,0a.33.33,0,0,1-.19.06A.32.32,0,0,1,15,7.42l-.49.39a.32.32,0,0,1-.07.43l0,0a.31.31,0,0,1-.2.07.33.33,0,0,1-.24-.1l-.49.39a.33.33,0,0,1-.05.44l0,0a.31.31,0,0,1-.21.07A.31.31,0,0,1,13,9.07l-.48.41a.33.33,0,0,1,0,.44l0,0a.31.31,0,0,1-.44,0l-.46.43a.32.32,0,0,1,0,.44l0,0a.28.28,0,0,1-.22.1.31.31,0,0,1-.22-.09l-.44.45a.33.33,0,0,1,0,.44l0,0a.31.31,0,0,1-.24.1.37.37,0,0,1-.2-.07l-.43.45a.33.33,0,0,1,0,.45l0,0a.29.29,0,0,1-.24.11.31.31,0,0,1-.19-.06l-.42.47a.32.32,0,0,1,0,.44l0,0a.3.3,0,0,1-.25.12.31.31,0,0,1-.18-.07l-.39.5a.31.31,0,0,1,0,.43l0,0a.33.33,0,0,1-.26.13.35.35,0,0,1-.17-.06l-.38.51a.31.31,0,0,1,.06.43l0,0a.35.35,0,0,1-.27.14.3.3,0,0,1-.16-.05l-.37.51a.33.33,0,0,1,.08.44l0,0a.33.33,0,0,1-.28.15.3.3,0,0,1-.15,0l-.34.53a.34.34,0,0,1,.09.43l0,0a.34.34,0,0,1-.28.16.37.37,0,0,1-.15,0l-.32.54a.32.32,0,0,1,.1.43l0,0a.32.32,0,0,1-.28.17.37.37,0,0,1-.14,0l-.3.55a.33.33,0,0,1,.12.43l0,0a.33.33,0,0,1-.29.18.53.53,0,0,1-.12,0c-.1.18-.2.37-.29.56A.32.32,0,0,1,4,21.3l0,0a.33.33,0,0,1-.3.19.2.2,0,0,1-.11,0c-.09.19-.18.38-.26.57a.32.32,0,0,1,.14.42v0a.33.33,0,0,1-.3.2.2.2,0,0,1-.11,0c-.09.2-.16.39-.24.58a.33.33,0,0,1,.16.42v0a.32.32,0,0,1-.3.21l-.1,0c-.08.19-.16.38-.23.58a.33.33,0,0,1,.19.41l0,0a.31.31,0,0,1-.3.21H2.05c-.07.2-.14.39-.2.59a.32.32,0,0,1,.19.4v0a.32.32,0,0,1-.31.23l-.08,0-.18.6a.32.32,0,0,1,.21.4v0a.32.32,0,0,1-.31.24H1.28c-.06.2-.11.4-.16.61a.31.31,0,0,1,.23.38v0a.33.33,0,0,1-.32.25H1c0,.21-.09.41-.14.61a.33.33,0,0,1,.25.38v0a.33.33,0,0,1-.32.26H.69c0,.21-.07.41-.11.62a.32.32,0,0,1,.25.37v0a.32.32,0,0,1-.32.28h0l-.09.62a.33.33,0,0,1,.27.36v0a.32.32,0,0,1-.32.28h0c0,.21-.05.41-.07.62a.32.32,0,0,1,.28.35v0a.33.33,0,0,1-.33.3h0c0,.2,0,.41,0,.62A.32.32,0,0,1,.39,35v0a.32.32,0,0,1-.33.31h0c0,.21,0,.42,0,.62a.34.34,0,0,1,.31.34v0a.33.33,0,0,1-.32.32c0,.2,0,.41,0,.61H0a.34.34,0,0,1,.33.33v0A.33.33,0,0,1,0,38c0,.21,0,.41,0,.62a.33.33,0,0,1,.33.31v0a.32.32,0,0,1-.3.34c0,.21,0,.41,0,.62h0a.33.33,0,0,1,.33.3v0a.31.31,0,0,1-.28.34c0,.21,0,.42,0,.62h0a.33.33,0,0,1,.32.29v0a.33.33,0,0,1-.27.36c0,.2,0,.41.07.61h0a.32.32,0,0,1,.32.28v0a.32.32,0,0,1-.27.36c0,.21.08.41.11.62h0a.33.33,0,0,1,.33.27v0a.32.32,0,0,1-.25.37c0,.21.09.41.13.61H.89a.33.33,0,0,1,.32.25v0a.32.32,0,0,1-.23.38c.05.2.09.41.14.61h.07a.33.33,0,0,1,.32.25v0a.32.32,0,0,1-.22.39c.06.2.11.4.17.6h.07a.32.32,0,0,1,.32.24v0a.32.32,0,0,1-.21.4c.06.2.13.4.2.59h.08a.33.33,0,0,1,.31.22v0a.32.32,0,0,1-.18.4c.07.2.13.4.2.59l.1,0a.34.34,0,0,1,.31.22v0a.33.33,0,0,1-.17.41c.08.19.15.39.23.58l.1,0a.35.35,0,0,1,.31.2v0A.32.32,0,0,1,3,52c.08.2.17.39.26.58a.23.23,0,0,1,.11,0,.34.34,0,0,1,.3.19v0a.33.33,0,0,1-.14.43l.27.56a.31.31,0,0,1,.13,0,.33.33,0,0,1,.29.18l0,0a.33.33,0,0,1-.13.43c.1.18.19.37.29.56a.37.37,0,0,1,.14,0,.34.34,0,0,1,.29.17v0a.33.33,0,0,1-.11.43l.32.55a.33.33,0,0,1,.14,0,.33.33,0,0,1,.28.16l0,0a.33.33,0,0,1-.1.44l.34.53a.3.3,0,0,1,.15,0,.34.34,0,0,1,.27.15l0,0a.33.33,0,0,1-.08.44l.35.52a.33.33,0,0,1,.16-.05.32.32,0,0,1,.27.14l0,0a.33.33,0,0,1-.06.44l.37.51a.34.34,0,0,1,.17-.05.3.3,0,0,1,.26.13l0,0a.31.31,0,0,1,0,.43c.12.17.26.33.39.5a.27.27,0,0,1,.17-.06.34.34,0,0,1,.26.12l0,0a.32.32,0,0,1,0,.44l.4.48A.35.35,0,0,1,9,61.33a.36.36,0,0,1,.25.11l0,0a.33.33,0,0,1,0,.44c.14.15.27.32.41.47a.3.3,0,0,1,.44,0l0,0a.32.32,0,0,1,0,.43c.14.16.29.31.44.46a.32.32,0,0,1,.2-.08.3.3,0,0,1,.23.1l0,0a.32.32,0,0,1,0,.44l.46.44a.33.33,0,0,1,.21-.09.31.31,0,0,1,.22.09l0,0a.34.34,0,0,1,0,.44l.47.42a.31.31,0,0,1,.22-.09.32.32,0,0,1,.22.08l0,0a.31.31,0,0,1,0,.43l.48.42a.3.3,0,0,1,.23-.11.34.34,0,0,1,.21.08l0,0a.32.32,0,0,1,.07.43l.49.39a.34.34,0,0,1,.24-.11.31.31,0,0,1,.2.07l0,0a.34.34,0,0,1,.07.44l.51.36a.34.34,0,0,1,.25-.11.3.3,0,0,1,.18.06l0,0a.32.32,0,0,1,.09.43l.52.35a.35.35,0,0,1,.26-.13.32.32,0,0,1,.18.06l0,0a.32.32,0,0,1,.1.42l.54.34a.31.31,0,0,1,.26-.14.37.37,0,0,1,.17,0l0,0a.33.33,0,0,1,.12.42l.54.32a.36.36,0,0,1,.27-.15.32.32,0,0,1,.16,0l0,0a.32.32,0,0,1,.13.43l.56.29a.32.32,0,0,1,.27-.16.33.33,0,0,1,.15,0l0,0a.34.34,0,0,1,.15.42l.56.28a.3.3,0,0,1,.28-.17.35.35,0,0,1,.14,0h0a.33.33,0,0,1,.17.41l.57.26a.33.33,0,0,1,.29-.18.27.27,0,0,1,.12,0h0a.32.32,0,0,1,.17.41l.59.23a.34.34,0,0,1,.29-.19.27.27,0,0,1,.12,0h0a.32.32,0,0,1,.19.4l.59.22a.34.34,0,0,1,.3-.21l.11,0h0a.34.34,0,0,1,.21.4l.59.2a.33.33,0,0,1,.31-.22l.09,0h0a.32.32,0,0,1,.21.38l.61.18a.33.33,0,0,1,.3-.23h.12a.33.33,0,0,1,.24.39c.2.06.4.1.6.15a.32.32,0,0,1,.31-.24H29a.32.32,0,0,1,.25.37l.61.14a.33.33,0,0,1,.32-.26h.09a.33.33,0,0,1,.26.37l.62.11a.32.32,0,0,1,.32-.26h.08a.33.33,0,0,1,.28.36l.61.08a.33.33,0,0,1,.32-.27h.08a.32.32,0,0,1,.28.35l.62.06a.33.33,0,0,1,.33-.29h.06a.33.33,0,0,1,.3.34l.62,0a.33.33,0,0,1,.32-.3h.06a.33.33,0,0,1,.31.33h.62a.32.32,0,0,1,.32-.3h0a.34.34,0,0,1,.33.32h.62a.32.32,0,0,1,.32-.32h0a.32.32,0,0,1,.32.3H39a.33.33,0,0,1,.31-.34h0a.32.32,0,0,1,.32.3l.63,0a.33.33,0,0,1,.29-.34h.07a.32.32,0,0,1,.32.29l.62-.07a.32.32,0,0,1,.28-.35h.08a.32.32,0,0,1,.32.27l.62-.08a.32.32,0,0,1,.27-.36h.09a.31.31,0,0,1,.31.26l.62-.11a.33.33,0,0,1,.26-.37h.1a.31.31,0,0,1,.31.25l.61-.14a.32.32,0,0,1,.25-.37h.11a.33.33,0,0,1,.31.24l.61-.15A.33.33,0,0,1,47,73h.12a.33.33,0,0,1,.3.23L48,73a.33.33,0,0,1,.22-.39h.13a.32.32,0,0,1,.3.21l.59-.2a.33.33,0,0,1,.21-.39h0l.11,0a.33.33,0,0,1,.3.2l.59-.21a.33.33,0,0,1,.19-.41h0a.25.25,0,0,1,.12,0,.33.33,0,0,1,.29.19c.19-.08.39-.15.58-.24a.34.34,0,0,1,.18-.41h0l.13,0a.33.33,0,0,1,.29.18l.57-.26a.33.33,0,0,1,.16-.41l0,0a.32.32,0,0,1,.14,0,.33.33,0,0,1,.28.18l.56-.29a.32.32,0,0,1,.15-.41l0,0a.28.28,0,0,1,.15,0,.32.32,0,0,1,.27.16l.56-.29a.33.33,0,0,1,.13-.43l0,0a.47.47,0,0,1,.16,0,.33.33,0,0,1,.27.15l.55-.32a.32.32,0,0,1,.11-.42l0,0a.34.34,0,0,1,.17,0,.33.33,0,0,1,.26.14l.53-.34a.33.33,0,0,1,.1-.43l0,0a.41.41,0,0,1,.18,0,.35.35,0,0,1,.26.13l.52-.36a.32.32,0,0,1,.09-.43l0,0a.32.32,0,0,1,.44.06l.51-.37a.33.33,0,0,1,.07-.44l0,0a.36.36,0,0,1,.2-.06.37.37,0,0,1,.24.1c.16-.13.33-.25.49-.39a.32.32,0,0,1,.06-.43l0,0a.32.32,0,0,1,.21-.08.31.31,0,0,1,.23.11l.48-.42a.32.32,0,0,1,0-.43l0,0A.31.31,0,0,1,62,65a.32.32,0,0,1,.22.1l.46-.43a.32.32,0,0,1,0-.43l0,0a.31.31,0,0,1,.22-.09.33.33,0,0,1,.22.09l.45-.44a.32.32,0,0,1,0-.44l0,0a.33.33,0,0,1,.23-.09.31.31,0,0,1,.2.07l.44-.45a.33.33,0,0,1,0-.44l0,0a.35.35,0,0,1,.25-.1.31.31,0,0,1,.2.07c.14-.15.27-.32.41-.47a.32.32,0,0,1,0-.44l0,0a.33.33,0,0,1,.25-.11.3.3,0,0,1,.18.06l.41-.48a.33.33,0,0,1,0-.44l0,0a.32.32,0,0,1,.25-.12.32.32,0,0,1,.18.06l.39-.5a.33.33,0,0,1,0-.44l0,0a.31.31,0,0,1,.26-.14.35.35,0,0,1,.17.06c.12-.17.25-.34.37-.52a.31.31,0,0,1-.06-.43l0,0a.32.32,0,0,1,.27-.14.33.33,0,0,1,.16.05c.12-.17.23-.35.34-.53a.31.31,0,0,1-.07-.43l0,0a.31.31,0,0,1,.27-.15.42.42,0,0,1,.15,0l.34-.53a.33.33,0,0,1-.1-.44l0,0a.33.33,0,0,1,.28-.16.37.37,0,0,1,.14,0c.1-.18.21-.36.31-.55a.32.32,0,0,1-.11-.42l0,0a.34.34,0,0,1,.29-.17.33.33,0,0,1,.13,0c.1-.19.19-.38.29-.56a.34.34,0,0,1-.13-.42l0,0a.33.33,0,0,1,.29-.18.5.5,0,0,1,.13,0l.27-.56A.32.32,0,0,1,71,52.7v0a.34.34,0,0,1,.3-.19.23.23,0,0,1,.11,0c.08-.2.18-.38.26-.58a.31.31,0,0,1-.16-.41v0a.33.33,0,0,1,.3-.2l.1,0,.24-.58a.33.33,0,0,1-.18-.41l0,0a.32.32,0,0,1,.3-.22l.1,0c.08-.19.14-.39.21-.59a.33.33,0,0,1-.19-.41v0a.32.32,0,0,1,.31-.22h.08c.07-.2.14-.39.2-.59a.32.32,0,0,1-.21-.4v0a.32.32,0,0,1,.31-.23h.08c0-.2.11-.4.17-.6a.32.32,0,0,1-.22-.39v0a.31.31,0,0,1,.31-.24h.07c0-.2.09-.4.14-.6a.34.34,0,0,1-.23-.39v0a.33.33,0,0,1,.32-.26h0c0-.21.09-.41.13-.61a.33.33,0,0,1-.25-.38v0a.33.33,0,0,1,.33-.27h0c0-.2.07-.41.11-.61a.33.33,0,0,1-.27-.37v0a.32.32,0,0,1,.32-.28h0c0-.21.06-.41.08-.62a.32.32,0,0,1-.27-.36v0a.33.33,0,0,1,.33-.29h0c0-.21,0-.42,0-.62a.34.34,0,0,1-.29-.35v0a.33.33,0,0,1,.33-.3h0c0-.21,0-.41,0-.62a.32.32,0,0,1-.31-.34v0a.34.34,0,0,1,.33-.32c0-.2,0-.41,0-.62A.33.33,0,0,1,74.29,37.59Zm-37,35.71a36,36,0,1,1,36-36A36,36,0,0,1,37.31,73.3Z"/></g></g></svg>