<svg xmlns="http://www.w3.org/2000/svg" viewBox="0 0 49.21 49.22"><g id="Layer_2" data-name="Layer 2"><g id="Layer_3" data-name="Layer 3"><path d="M24.61,0a24.61,24.61,0,1,0,24.6,24.61A24.61,24.61,0,0,0,24.61,0Zm1.74,8.69h8.08V11.5H32.09V22.13H28.82V11.5H26.35ZM23.08,40.28h-8.3v-2.8h2.48V26.8h3.35V37.48h2.47Zm-1.45-14.5H12.39v3.6h2.43v2.8H6.32v-2.8H8.8V19.84H6.32V17h8.5v2.8H12.39v3.31h9.82l1,2.63ZM32.09,40.5l-1.92,0L24.75,26.8l-.4-1-1-2.63-.4-1-2.3-5.81v5.81H17.26V11.5H14.78V8.69h5.83l5.33,13.44.4,1,1,2.63.4,1,1,2.62V26.8h3.27Zm10.8-11.12v2.8h-8.5v-2.8h2.45v-3.6H28.45l-1-2.63h9.43V19.84H34.39V17h8.5v2.8H40.44v9.54Z"/></g></g></svg>